<svg xmlns="http://www.w3.org/2000/svg" width="104.542" height="105.446" viewBox="0 0 104.542 105.446">
  <g id="Group_664" data-name="Group 664" transform="translate(1 1.016)">
    <path id="Path_48105" data-name="Path 48105" d="M11,43.32c3.429,0,36.181,0,37.724,13.718m-17.147,0H54.383c7.03,0,20.577,0,27.436,6.859,1.372,1.372,2.915,6.859-3.258,6.859H29.176A67.607,67.607,0,0,1,11,67.326" transform="translate(6.147 29.245)" fill="none" stroke="#3bacc7" stroke-linecap="round" stroke-linejoin="round" stroke-width="2"/>
    <path id="Path_48106" data-name="Path 48106" d="M18.147,75.615,1,72.185V41.32H18.147Z" transform="translate(-1 27.815)" fill="none" stroke="#3bacc7" stroke-linecap="round" stroke-linejoin="round" stroke-width="2"/>
    <path id="Path_48107" data-name="Path 48107" d="M12.8,48.194V44.764a37.724,37.724,0,1,1,75.449,0v3.429" transform="translate(7.434 3.314)" fill="none" stroke="#43f1f7" stroke-linecap="round" stroke-linejoin="round" stroke-width="2"/>
    <path id="Path_48108" data-name="Path 48108" d="M31.842,11.527a6.863,6.863,0,1,1,11.489.171" transform="translate(20.287 -1.002)" fill="none" stroke="#43f1f7" stroke-linecap="round" stroke-linejoin="round" stroke-width="2"/>
    <line id="Line_61" data-name="Line 61" x2="89.167" transform="translate(13.375 51.508)" fill="none" stroke="#43f1f7" stroke-linecap="round" stroke-linejoin="round" stroke-width="2"/>
    <path id="Path_48109" data-name="Path 48109" d="M93.108,31.04l-2.915,5.83a6.324,6.324,0,0,1-6,4.458H19.717a7.221,7.221,0,0,1-6-4.458L10.8,31.04" transform="translate(6.005 20.468)" fill="none" stroke="#43f1f7" stroke-linecap="round" stroke-linejoin="round" stroke-width="2"/>
  </g>
</svg>
