<svg xmlns="http://www.w3.org/2000/svg" width="100.19" height="80.479" viewBox="0 0 100.19 80.479">
  <g id="Group_663" data-name="Group 663" transform="translate(1 1)">
    <path id="Path_43925" data-name="Path 43925" d="M56.474,42.829l8.886,8.886a6.544,6.544,0,0,0,9.263-9.246L52.629,20.474c-3.993-3.993-8.412-4.369-13.125.344l-1.375,1.358a6.545,6.545,0,0,1-9.263-9.246l4.648-4.648C38.866,2.947,41.893,1,46.393,1h7.1L82.609,30.1l-10.2,10.2" transform="translate(15.581 -1)" fill="none" stroke="#43f1f7" stroke-linecap="round" stroke-linejoin="round" stroke-miterlimit="10" stroke-width="2"/>
    <path id="Path_43926" data-name="Path 43926" d="M48.231,26.56,59.424,37.754a6.55,6.55,0,0,1-9.263,9.263L39.95,36.8" transform="translate(23.792 15.269)" fill="none" stroke="#3bacc7" stroke-linecap="round" stroke-linejoin="round" stroke-miterlimit="10" stroke-width="2"/>
    <path id="Path_43927" data-name="Path 43927" d="M42.283,32.82l7.9,7.9a6.542,6.542,0,0,1-9.246,9.246L36.31,45.339" transform="translate(21.475 19.254)" fill="none" stroke="#3bacc7" stroke-linecap="round" stroke-linejoin="round" stroke-miterlimit="10" stroke-width="2"/>
    <path id="Path_43928" data-name="Path 43928" d="M59.292,65.778l2.275,2.275a6.546,6.546,0,0,1-9.246,9.263l-2.275-2.275M11.555,39.97,1,29.415,27.217,3.182S30.7,7.24,33.632,7.24c3.551,0,4.435-1.162,6.546-3.273C43.647.482,48.884.6,53.27,4.966" transform="translate(-1 -0.678)" fill="none" stroke="#3bacc7" stroke-linecap="round" stroke-linejoin="round" stroke-miterlimit="10" stroke-width="2"/>
    <path id="Path_43929" data-name="Path 43929" d="M20.7,33.56a6.541,6.541,0,0,0-8.952-9.541,2.5,2.5,0,0,0-.295.295L6.837,28.945a6.545,6.545,0,0,0,9.246,9.263Z" transform="translate(1.558 12.524)" fill="none" stroke="#43f1f7" stroke-linecap="round" stroke-linejoin="round" stroke-miterlimit="10" stroke-width="2"/>
    <path id="Path_43930" data-name="Path 43930" d="M27.269,39.167A6.55,6.55,0,0,0,18.006,29.9h0l-6.939,6.939a6.545,6.545,0,0,0,9.246,9.263Zm9.246,9.246a6.541,6.541,0,0,0-9.246-9.246L22.637,43.8a6.54,6.54,0,0,0,9.246,9.246Z" transform="translate(4.251 16.179)" fill="none" stroke="#43f1f7" stroke-linecap="round" stroke-linejoin="round" stroke-miterlimit="10" stroke-width="2"/>
    <path id="Path_43931" data-name="Path 43931" d="M36.463,50.787A6.55,6.55,0,1,0,27.2,41.525h0L24.926,43.8a6.551,6.551,0,0,0,9.263,9.263Z" transform="translate(13.058 23.575)" fill="none" stroke="#43f1f7" stroke-linecap="round" stroke-linejoin="round" stroke-miterlimit="10" stroke-width="2"/>
  </g>
</svg>
