<svg xmlns="http://www.w3.org/2000/svg" width="102.51" height="94.977" viewBox="0 0 102.51 94.977">
  <g id="Group_661" data-name="Group 661" transform="translate(1 1)">
    <g id="Group_653" data-name="Group 653" transform="translate(0 63.055)">
      <path id="Path_43920" data-name="Path 43920" d="M1,1H17.623V30.921H1ZM17.623,24.272c6.649,0,13.3,6.649,19.948,6.649H97.413c3.325,0,13.963-13.3-33.246-13.3C48.209,17.623,40.9,14.3,40.9,14.3" transform="translate(-1 -1)" fill="none" stroke="#3bacc7" stroke-linecap="round" stroke-linejoin="round" stroke-width="2"/>
      <path id="Path_43921" data-name="Path 43921" d="M11,4.325C17.649,4.325,20.974,1,30.948,1S60.869,2.662,60.869,15.961v1.662" transform="translate(5.623 -1)" fill="none" stroke="#3bacc7" stroke-linecap="round" stroke-linejoin="round" stroke-width="2"/>
    </g>
    <path id="Path_43922" data-name="Path 43922" d="M29.393,1,1,37.782H26.3L21.65,62.949,50.817,22.3H26.3Z" transform="translate(49.692 -1)" fill="none" stroke="#43f1f7" stroke-linecap="round" stroke-linejoin="round" stroke-miterlimit="10" stroke-width="2"/>
  </g>
</svg>
