<svg xmlns="http://www.w3.org/2000/svg" width="98" height="98" viewBox="0 0 98 98">
  <g id="Group_815" data-name="Group 815" transform="translate(0.354)">
    <g id="Group_662" data-name="Group 662" transform="translate(12.83 25.973)">
      <path id="Path_43923" data-name="Path 43923" d="M1,16.834H74.079M10.744,1,21.706,16.834,37.54,1,53.374,16.834,64.335,1M21.706,16.834,37.54,57.027,53.374,16.834" transform="translate(-1 -1)" fill="none" stroke="#3bacc7" stroke-linecap="round" stroke-linejoin="round" stroke-miterlimit="10" stroke-width="2"/>
      <path id="Path_43924" data-name="Path 43924" d="M37.54,57.027,1,16.834,10.744,1H64.335l9.744,15.834Z" transform="translate(-1 -1)" fill="none" stroke="#3bacc7" stroke-linecap="round" stroke-linejoin="round" stroke-width="2"/>
    </g>
    <g id="Ellipse_20758" data-name="Ellipse 20758" transform="translate(-0.354)" fill="none" stroke="#43f1f7" stroke-width="2">
      <circle cx="49" cy="49" r="49" stroke="none"/>
      <circle cx="49" cy="49" r="48" fill="none"/>
    </g>
    <g id="Ellipse_20759" data-name="Ellipse 20759" transform="translate(64.646 2)" fill="#42f1f7" stroke="#f5f5f5" stroke-width="2">
      <circle cx="7" cy="7" r="7" stroke="none"/>
      <circle cx="7" cy="7" r="6" fill="none"/>
    </g>
    <g id="Ellipse_20760" data-name="Ellipse 20760" transform="translate(16.646 79)" fill="#42f1f7" stroke="#f5f5f5" stroke-width="2">
      <circle cx="7" cy="7" r="7" stroke="none"/>
      <circle cx="7" cy="7" r="6" fill="none"/>
    </g>
  </g>
</svg>
