<svg xmlns="http://www.w3.org/2000/svg" width="84.856" height="84.856" viewBox="0 0 84.856 84.856">
  <g id="Group_660" data-name="Group 660" transform="translate(1 1)">
    <path id="Path_43917" data-name="Path 43917" d="M40.63,26.53,58.841.5,34.26,20.972" transform="translate(24.015 -0.5)" fill="none" stroke="#43f1f7" stroke-linecap="round" stroke-linejoin="round" stroke-miterlimit="10" stroke-width="2"/>
    <path id="Path_43918" data-name="Path 43918" d="M9.621,58.451C9.5,61.006,9.5,62.508,9.5,62.508H59.559c0-17.244-17.244-20.576-17.244-33.3" transform="translate(6.035 20.348)" fill="none" stroke="#3bacc7" stroke-linecap="round" stroke-linejoin="round" stroke-miterlimit="10" stroke-width="2"/>
    <path id="Path_43919" data-name="Path 43919" d="M49.057,10.852a20.7,20.7,0,0,0-29.051,8.475,20.755,20.755,0,0,0-13.481,25.6h0A17.735,17.735,0,0,0,.5,58.011C.5,68.4,11.409,69.542,5.678,80.451c0,0,12.118-1.588,15.156-9.908a13.815,13.815,0,0,0-2.589-13.792h0C21.317,38.885,28.636,17.1,46.157,15.03A25.313,25.313,0,0,1,57.463,4.5V17.274a35.586,35.586,0,0,1,10.788,10.2C73.689,34.949,79.9,42.355,79.9,44.2c0,3.452-5.178,8.631-8.631,8.631s-12.5-7.06-12.5-7.06h0A12.095,12.095,0,0,1,40.2,35.571" transform="translate(-0.5 2.405)" fill="none" stroke="#3bacc7" stroke-linecap="round" stroke-linejoin="round" stroke-miterlimit="10" stroke-width="2"/>
  </g>
</svg>
