<svg xmlns="http://www.w3.org/2000/svg" width="122.39" height="121.597" viewBox="0 0 122.39 121.597">
  <g id="Talent_Channel_2" data-name="Talent Channel 2" transform="translate(1.875 1.867)">
    <g id="Group_823" data-name="Group 823" transform="translate(0 66.976)">
      <g id="Group_820" data-name="Group 820" transform="translate(0 2.693)">
        <path id="Path_52284" data-name="Path 52284" d="M38.929,150.983a3.245,3.245,0,0,1-1.315-3.245V144.7m-12.252.76v2.279c0,.967.346,2.348-1.661,3.59" transform="translate(-8.606 -115.769)" fill="none" stroke="#d3d3d3" stroke-linecap="round" stroke-linejoin="round" stroke-miterlimit="10" stroke-width="3.733"/>
        <path id="Path_52285" data-name="Path 52285" d="M33.1,133.25a12.73,12.73,0,0,0,5.468-7.733c2.284,0,3.253-2.21,3.253-5.317,0-1.519,0-3.729-2.284-3.729v-1.519m-22.151,0v1.519c-1.523,0-2.284,2.279-2.284,3.8,0,3.038,1.038,5.317,3.392,5.317h0a11.6,11.6,0,0,0,5.468,7.6m15.575-18.228v-1.519c0-7.94-5.607-10.633-10.66-10.633s-11.421,2.693-11.421,10.633v1.588c9.137,0,9.9-6.076,16.059-6.076C39.12,108.876,39.535,114.952,39.535,114.952Z" transform="translate(-5.959 -102.8)" fill="none" stroke="#d3d3d3" stroke-linecap="round" stroke-linejoin="round" stroke-miterlimit="10" stroke-width="3.733"/>
        <path id="Path_52286" data-name="Path 52286" d="M11.035,155.871C1.414,157.39,1.9,164.226,1.9,164.226H24.81l-7.753-10.15A17.354,17.354,0,0,1,11.035,155.871Zm31.911,1.45a15.855,15.855,0,0,0-4.43-1.45h0c-3.392-.552-5.261-1.312-6.3-2.071L24.81,164.226H36.024" transform="translate(-1.894 -118.586)" fill="none" stroke="#d3d3d3" stroke-linecap="round" stroke-linejoin="round" stroke-miterlimit="10" stroke-width="3.733"/>
      </g>
      <g id="Group_821" data-name="Group 821" transform="translate(33.507)">
        <path id="Path_52287" data-name="Path 52287" d="M81.806,98.969c-5.607,0-11.906,3.383-11.906,12.221v8.148c0,6.076,2.769,11.324,6.784,13.809m10.245-.069c4.015-2.417,6.784-7.733,6.784-13.809v-8.148c0-8.838-6.23-12.221-11.906-12.221" transform="translate(-56.333 -98.9)" fill="none" stroke="#d3d3d3" stroke-linecap="round" stroke-linejoin="round" stroke-miterlimit="10" stroke-width="3.733"/>
        <path id="Path_52288" data-name="Path 52288" d="M91.834,112.967c-16.959,0-16.959-12.567-16.959-12.567s1.177,14.293-6.784,14.293M91.35,140.378c-5.468-1.312-5.468-3.936-5.468-5.386v-1.726m-9.345,16.986H83.32m-9.345-16.917v1.726c0,1.45,0,4.074-5.745,5.386m-.208-20.714s-.831,13.533-4.222,16.917c3.392,3.383,4.153,3.729,4.153,3.729" transform="translate(-54.455 -99.364)" fill="none" stroke="#d3d3d3" stroke-linecap="round" stroke-linejoin="round" stroke-miterlimit="10" stroke-width="3.733"/>
        <path id="Path_52289" data-name="Path 52289" d="M103.869,128.4s.831,13.533,4.222,16.917c-3.392,3.383-5.192,3.59-5.192,3.59" transform="translate(-66.49 -108.031)" fill="none" stroke="#d3d3d3" stroke-linecap="round" stroke-linejoin="round" stroke-miterlimit="10" stroke-width="3.733"/>
        <path id="Path_52290" data-name="Path 52290" d="M101.247,168.174a11.682,11.682,0,0,0-10.522-9.321,19.044,19.044,0,0,1-3.461-.552l-8.1,9.874Zm-41.117-9.321a10.5,10.5,0,0,0-9.829,9.321H72.381L64.075,158.3a25.83,25.83,0,0,1-3.946.552Z" transform="translate(-50.3 -117.286)" fill="none" stroke="#d3d3d3" stroke-linecap="round" stroke-linejoin="round" stroke-miterlimit="10" stroke-width="3.733"/>
      </g>
      <g id="Group_822" data-name="Group 822" transform="translate(76.493 2.693)">
        <path id="Path_52291" data-name="Path 52291" d="M144.059,150.983a3.245,3.245,0,0,1-1.315-3.245V144.7m-12.183.76v2.279c0,.967.346,2.348-1.661,3.59" transform="translate(-117.479 -115.769)" fill="none" stroke="#d3d3d3" stroke-linecap="round" stroke-linejoin="round" stroke-miterlimit="10" stroke-width="3.733"/>
        <path id="Path_52292" data-name="Path 52292" d="M138.3,133.25a12.73,12.73,0,0,0,5.468-7.733c2.284,0,3.253-2.21,3.253-5.317,0-1.519,0-3.729-2.284-3.729v-1.519m-22.151,0v1.519c-1.523,0-2.284,2.279-2.284,3.8,0,3.038,1.038,5.317,3.392,5.317h0a11.6,11.6,0,0,0,5.468,7.6m15.575-18.228v-1.519c0-7.94-5.607-10.633-10.66-10.633s-11.421,2.693-11.421,10.633v1.588c9.137,0,9.9-6.076,16.059-6.076C144.32,108.876,144.735,114.952,144.735,114.952Z" transform="translate(-114.832 -102.8)" fill="none" stroke="#d3d3d3" stroke-linecap="round" stroke-linejoin="round" stroke-miterlimit="10" stroke-width="3.733"/>
        <path id="Path_52293" data-name="Path 52293" d="M119.945,164.226h11.629l-7.753-10.15a16.855,16.855,0,0,1-5.953,1.8A14.7,14.7,0,0,0,112.4,157.8m32.949-1.933c-3.392-.552-5.261-1.312-6.3-2.071l-7.407,10.5h22.912c-.069-.069-.069-6.9-9.206-8.424Z" transform="translate(-112.4 -118.586)" fill="none" stroke="#d3d3d3" stroke-linecap="round" stroke-linejoin="round" stroke-miterlimit="10" stroke-width="3.733"/>
      </g>
    </g>
    <g id="Group_824" data-name="Group 824" transform="translate(20.493)">
      <path id="Path_52294" data-name="Path 52294" d="M67.606,73.778C61.515,67.012,57.5,54.652,57.5,40.566,57.5,19.231,66.845,1.9,78.336,1.9S99.171,19.231,99.171,40.566c0,14.293-4.153,26.79-10.383,33.488" transform="translate(-39.503 -1.9)" fill="none" stroke="#d3d3d3" stroke-linecap="round" stroke-linejoin="round" stroke-miterlimit="10" stroke-width="3.733"/>
      <path id="Path_52295" data-name="Path 52295" d="M36.2,56.033h71.09M36.2,25.1h71.09M71.78,1.9V68.462" transform="translate(-32.947 -1.9)" fill="none" stroke="#d3d3d3" stroke-linecap="round" stroke-linejoin="round" stroke-miterlimit="10" stroke-width="3.733"/>
      <path id="Path_52296" data-name="Path 52296" d="M58.219,77.3a38.689,38.689,0,1,1,23.812.138" transform="translate(-31.5 -1.9)" fill="none" stroke="#d3d3d3" stroke-linecap="round" stroke-linejoin="round" stroke-miterlimit="10" stroke-width="3.733"/>
    </g>
  </g>
</svg>
