<svg xmlns="http://www.w3.org/2000/svg" width="119.5" height="125.873" viewBox="0 0 119.5 125.873">
  <g id="Key_Hires_for_Projects" data-name="Key Hires for Projects" transform="translate(1.5 1.5)">
    <path id="Path_52328" data-name="Path 52328" d="M98.439,97.481l2.055-.881,1.555,1.6h2.221l.888,2.037,2.055.881v2.2l1.61,1.541-.888,2.037.888,2.037-1.61,1.541v2.2l-2.055.881-.888,2.037h-2.221l-1.555,1.6-2.055-.881-2.11.881-1.555-1.6H92.553l-.888-2.037-2.055-.881v-2.2L88,108.93l.888-2.037L88,104.857l1.61-1.541v-2.2l2.055-.881.888-2.037h2.221l1.555-1.6Z" transform="translate(-39.967 -44.254)" fill="none" stroke="#fff" stroke-linecap="round" stroke-linejoin="round" stroke-miterlimit="10" stroke-width="2"/>
    <path id="Path_52329" data-name="Path 52329" d="M99,115.054h7.385M99,110.265h7.385m.389-3.413a2.777,2.777,0,0,0-5.553,0v6.055a1.947,1.947,0,0,1-2.221,2.2" transform="translate(-44.859 -47.625)" fill="none" stroke="#fff" stroke-linecap="round" stroke-linejoin="round" stroke-miterlimit="10" stroke-width="2"/>
    <path id="Path_52330" data-name="Path 52330" d="M90.835,146.6v23.118L71.4,188.983m19.435-19.265,19.435,19.265" transform="translate(-32.585 -66.732)" fill="none" stroke="#fff" stroke-linecap="round" stroke-linejoin="round" stroke-miterlimit="10" stroke-width="3"/>
    <path id="Path_52331" data-name="Path 52331" d="M1.5,81.5H118M9.274,81.5V1.8H110.226V81.558" transform="translate(-1.5 -1.635)" fill="none" stroke="#fff" stroke-linecap="round" stroke-linejoin="round" stroke-miterlimit="10" stroke-width="3"/>
    <path id="Path_52332" data-name="Path 52332" d="M84.2,69.647a5.32,5.32,0,0,0,10.384,1.6h3.332l.777-.771,1.277,1.266,1.277-1.266,1.277,1.266,1.277-1.266.833.826h.833l1.666-1.651L105.468,68l-10.884.055a5.385,5.385,0,0,0-6.719-3.358A5.261,5.261,0,0,0,84.2,69.647Zm3.609-1.156a1.156,1.156,0,1,1,0,2.312,1.134,1.134,0,0,1-1.166-1.156,1.168,1.168,0,0,1,1.166-1.156Z" transform="translate(-38.277 -29.796)" fill="none" stroke="#fff" stroke-linecap="round" stroke-linejoin="round" stroke-miterlimit="10" stroke-width="2"/>
    <g id="Group_836" data-name="Group 836" transform="translate(50.92 6.77)">
      <path id="Path_52333" data-name="Path 52333" d="M100.641,13.8A7.409,7.409,0,0,0,93.2,21.176a7.5,7.5,0,0,0,3,5.78l.555,2.2v1.651h0V32.35a.357.357,0,0,0,.333.33H97.2a3.8,3.8,0,0,0,7,0h.056a.357.357,0,0,0,.333-.33V30.808h0V29.267h0l.611-2.312a7.5,7.5,0,0,0,3-5.78A7.578,7.578,0,0,0,100.641,13.8Zm0,20.531a2.819,2.819,0,0,1-2.776-1.651h5.608A3.006,3.006,0,0,1,100.641,34.331Zm3.221-3.193v.881h-6.5v-.881Zm0-1.541v.881h-6.5V29.6Zm.777-3.082c-.056.055-.111.11-.111.165l-.555,2.257H97.42l-.555-2.257c0-.055-.056-.11-.111-.165a6.826,6.826,0,0,1-2.832-5.339,6.775,6.775,0,0,1,13.549,0A7.259,7.259,0,0,1,104.639,26.515Z" transform="translate(-93.2 -13.8)" fill="#fff" stroke="#fff" stroke-miterlimit="10" stroke-width="1"/>
      <g id="Group_835" data-name="Group 835" transform="translate(9.481 2.793)">
        <path id="Path_52334" data-name="Path 52334" d="M113.287,23.4a.319.319,0,0,1-.333-.33,4.825,4.825,0,0,0-.666-1.927,3.446,3.446,0,0,0-1.777-1.651.313.313,0,0,1-.222-.385.316.316,0,0,1,.389-.22,3.994,3.994,0,0,1,2.166,1.927,5.227,5.227,0,0,1,.722,2.2c.056.22-.056.33-.278.385Z" transform="translate(-110.274 -18.874)" fill="#fff" stroke="#fff" stroke-miterlimit="10" stroke-width="1"/>
      </g>
    </g>
    <line id="Line_77" data-name="Line 77" y2="4.679" transform="translate(58.194 30.439)" fill="none" stroke="#fff" stroke-linecap="round" stroke-linejoin="round" stroke-miterlimit="10" stroke-width="2"/>
    <line id="Line_78" data-name="Line 78" y2="4.734" transform="translate(58.194 44.695)" fill="none" stroke="#fff" stroke-linecap="round" stroke-linejoin="round" stroke-miterlimit="10" stroke-width="2"/>
    <line id="Line_79" data-name="Line 79" x2="115.001" transform="translate(0.722)" fill="none" stroke="#fff" stroke-linecap="round" stroke-linejoin="round" stroke-miterlimit="10" stroke-width="3"/>
  </g>
</svg>
