<svg xmlns="http://www.w3.org/2000/svg" width="142.352" height="92.456" viewBox="0 0 142.352 92.456">
  <g id="Key_Hires" data-name="Key Hires" transform="translate(1.5 1.5)">
    <path id="Path_52344" data-name="Path 52344" d="M27.9,53.822a19.9,19.9,0,0,0,38.865,5.947l12.444.085,2.983-2.973,4.688,4.672,4.688-4.672,4.688,4.672,4.688-4.672,3.154,3.143h3.154l6.222-6.2-6.222-6.2-40.57.17A19.9,19.9,0,0,0,27.9,53.822ZM41.537,49.4a4.449,4.449,0,0,1,4.432,4.418,4.432,4.432,0,0,1-8.864,0A4.392,4.392,0,0,1,41.537,49.4Z" transform="translate(-5.229 -6.248)" fill="none" stroke="#fff" stroke-linecap="round" stroke-linejoin="round" stroke-miterlimit="10" stroke-width="3"/>
    <g id="Group_843" data-name="Group 843" transform="translate(90.6)">
      <path id="Path_52345" data-name="Path 52345" d="M119.2,32.223V15.657a14.4,14.4,0,0,1,28.808,0V32.223" transform="translate(-109.313 -1.3)" fill="none" stroke="#fff" stroke-linecap="round" stroke-linejoin="round" stroke-miterlimit="10" stroke-width="3"/>
      <path id="Path_52346" data-name="Path 52346" d="M136.1,52V63.044" transform="translate(-111.809 -8.929)" fill="none" stroke="#fff" stroke-linecap="round" stroke-linejoin="round" stroke-miterlimit="10" stroke-width="3"/>
      <path id="Path_52347" data-name="Path 52347" d="M107.6,47.979V44.326a6.646,6.646,0,0,1,6.648-6.626H149.7a6.646,6.646,0,0,1,6.648,6.626V66.414a6.646,6.646,0,0,1-6.648,6.626H114.248a6.646,6.646,0,0,1-6.648-6.626v-5.1" transform="translate(-107.6 -6.777)" fill="none" stroke="#fff" stroke-linecap="round" stroke-linejoin="round" stroke-miterlimit="10" stroke-width="3"/>
    </g>
    <line id="Line_80" data-name="Line 80" y1="16.481" transform="translate(42.274 5.267)" fill="none" stroke="#fff" stroke-linecap="round" stroke-linejoin="round" stroke-miterlimit="10" stroke-width="3"/>
    <line id="Line_81" data-name="Line 81" x1="11.677" y1="11.639" transform="translate(12.358 17.585)" fill="none" stroke="#fff" stroke-linecap="round" stroke-linejoin="round" stroke-miterlimit="10" stroke-width="3"/>
    <line id="Line_82" data-name="Line 82" x1="16.535" transform="translate(0 47.319)" fill="none" stroke="#fff" stroke-linecap="round" stroke-linejoin="round" stroke-miterlimit="10" stroke-width="3"/>
    <line id="Line_83" data-name="Line 83" x1="11.677" y2="11.639" transform="translate(12.358 65.499)" fill="none" stroke="#fff" stroke-linecap="round" stroke-linejoin="round" stroke-miterlimit="10" stroke-width="3"/>
    <line id="Line_84" data-name="Line 84" y2="16.481" transform="translate(42.274 72.975)" fill="none" stroke="#fff" stroke-linecap="round" stroke-linejoin="round" stroke-miterlimit="10" stroke-width="3"/>
    <line id="Line_85" data-name="Line 85" x2="11.677" y2="11.639" transform="translate(60.428 65.499)" fill="none" stroke="#fff" stroke-linecap="round" stroke-linejoin="round" stroke-miterlimit="10" stroke-width="3"/>
    <line id="Line_86" data-name="Line 86" y1="11.639" x2="11.677" transform="translate(60.428 17.585)" fill="none" stroke="#fff" stroke-linecap="round" stroke-linejoin="round" stroke-miterlimit="10" stroke-width="3"/>
  </g>
</svg>
