<svg xmlns="http://www.w3.org/2000/svg" width="97.966" height="114.84" viewBox="0 0 97.966 114.84">
  <g id="Talent_Channel" data-name="Talent Channel" transform="translate(2 2)">
    <g id="Group_838" data-name="Group 838" transform="translate(0 80.63)">
      <path id="Path_52335" data-name="Path 52335" d="M16.07,144.645l-13.01.5L2,116.5l13.01-.5Zm38.463-14.428c11.878-4.173,25.807-10.609,26.019-6.153.141,4.456-10.323,11.034-15.131,13.58-10.394,5.3-15.06,8.346-20.575,8.558-9.262.354-26.3-6.648-28.918-6.507" transform="translate(-2 -116)" fill="none" stroke="#d3d3d3" stroke-linecap="round" stroke-linejoin="round" stroke-miterlimit="10" stroke-width="4"/>
      <path id="Path_52336" data-name="Path 52336" d="M21.4,119.685c18.242-.637,12.585,7.356,28.211,6.79l5.232-.212a5.2,5.2,0,0,1,.354,10.4l-13.01.5" transform="translate(-7.683 -117.068)" fill="none" stroke="#d3d3d3" stroke-linecap="round" stroke-linejoin="round" stroke-miterlimit="10" stroke-width="4"/>
    </g>
    <path id="Path_52337" data-name="Path 52337" d="M48.077,91.4C39.381,84.115,33.3,67.777,33.3,48.751,33.3,22.935,44.542,2,58.4,2S83.5,22.935,83.5,48.751C83.5,71.1,75.086,89.7,63.915,94.37" transform="translate(-11.169 -2)" fill="none" stroke="#d3d3d3" stroke-linecap="round" stroke-linejoin="round" stroke-miterlimit="10" stroke-width="4"/>
    <path id="Path_52338" data-name="Path 52338" d="M8.1,67.494H93.794M8.1,30.079H93.794M51.018,2V91.541" transform="translate(-3.787 -2)" fill="none" stroke="#d3d3d3" stroke-linecap="round" stroke-linejoin="round" stroke-miterlimit="10" stroke-width="4"/>
    <path id="Path_52339" data-name="Path 52339" d="M18.933,84.256a46.758,46.758,0,1,1,47.3,8.134" transform="translate(-2.176 -2)" fill="none" stroke="#d3d3d3" stroke-linecap="round" stroke-linejoin="round" stroke-miterlimit="10" stroke-width="4"/>
  </g>
</svg>
