<svg xmlns="http://www.w3.org/2000/svg" width="249.502" height="64.591" viewBox="0 0 249.502 64.591">
  <g id="Solutions_delivery_for_Projects" data-name="Solutions delivery for Projects" transform="translate(1.5 1.5)">
    <path id="Path_52297" data-name="Path 52297" d="M199.6,30.7l11.5,13.447L243.549,3.7" transform="translate(2.344 -1.031)" fill="none" stroke="#fff" stroke-linecap="round" stroke-linejoin="round" stroke-width="3"/>
    <path id="Path_52298" data-name="Path 52298" d="M235.743,32.449a24.87,24.87,0,1,1-28.384-20.941,24.42,24.42,0,0,1,13.429,1.642" transform="translate(2.113 -0.832)" fill="none" stroke="#fff" stroke-linecap="round" stroke-linejoin="round" stroke-width="3"/>
    <path id="Path_52299" data-name="Path 52299" d="M1.1,1.1V62.691H43.829V17.524L27.551,1.1H1.1Z" transform="translate(-1.1 -1.1)" fill="none" stroke="#fff" stroke-linecap="round" stroke-linejoin="round" stroke-width="3"/>
    <path id="Path_52300" data-name="Path 52300" d="M27.1,1.1V17.524H43.378" transform="translate(-0.649 -1.1)" fill="none" stroke="#fff" stroke-linecap="round" stroke-linejoin="round" stroke-width="3"/>
    <path id="Path_52301" data-name="Path 52301" d="M11.1,21.1h8.139M11.1,31.365H33.482M11.1,41.63H33.482M11.1,51.9H29.412" transform="translate(-0.927 -0.57)" fill="none" stroke="#fff" stroke-linecap="round" stroke-linejoin="round" stroke-width="3"/>
    <path id="Path_52302" data-name="Path 52302" d="M86.278,46.1,81.7,52.978v2.258h67.959V52.978L145.081,46.1" transform="translate(0.298 0.093)" fill="none" stroke="#fff" stroke-linecap="round" stroke-linejoin="round" stroke-width="3"/>
    <path id="Path_52303" data-name="Path 52303" d="M86.2,8.2h58.9V47.1H86.2Z" transform="translate(0.376 -0.912)" fill="none" stroke="#fff" stroke-linecap="round" stroke-linejoin="round" stroke-width="3"/>
    <path id="Path_52304" data-name="Path 52304" d="M100.005,22.4l7.427,4.619L99.7,31.741" transform="translate(0.611 -0.535)" fill="none" stroke="#fff" stroke-linecap="round" stroke-linejoin="round" stroke-width="3"/>
    <line id="Line_70" data-name="Line 70" x2="9.36" transform="translate(110.789 31.719)" fill="none" stroke="#fff" stroke-linecap="round" stroke-linejoin="round" stroke-width="3"/>
    <g id="Group_828" data-name="Group 828" transform="translate(48.629 31.411)">
      <g id="Group_827" data-name="Group 827">
        <line id="Line_71" data-name="Line 71" x2="0.509" stroke-width="3" stroke="#fff" stroke-linecap="round" stroke-linejoin="round" fill="none"/>
        <line id="Line_72" data-name="Line 72" x2="26.451" transform="translate(4.273)" stroke-dasharray="0.927 3.71" stroke="#fff" stroke-linecap="round" stroke-linejoin="round" stroke-width="3" fill="none"/>
        <line id="Line_73" data-name="Line 73" x2="0.509" transform="translate(32.657)" fill="none" stroke="#fff" stroke-linecap="round" stroke-linejoin="round" stroke-width="3"/>
      </g>
    </g>
    <g id="Group_830" data-name="Group 830" transform="translate(149.855 31.411)">
      <g id="Group_829" data-name="Group 829">
        <line id="Line_74" data-name="Line 74" x2="0.509" stroke-width="3" stroke="#fff" stroke-linecap="round" stroke-linejoin="round" fill="none"/>
        <line id="Line_75" data-name="Line 75" x2="26.451" transform="translate(4.273)" stroke-dasharray="0.927 3.71" stroke="#fff" stroke-linecap="round" stroke-linejoin="round" stroke-width="3" fill="none"/>
        <line id="Line_76" data-name="Line 76" x2="0.509" transform="translate(32.555)" fill="none" stroke="#fff" stroke-linecap="round" stroke-linejoin="round" stroke-width="3"/>
      </g>
    </g>
  </g>
</svg>
