<svg xmlns="http://www.w3.org/2000/svg" width="92.288" height="124.476" viewBox="0 0 92.288 124.476">
  <g id="For_Startups" data-name="For Startups" transform="translate(1.644 1.644)">
    <g id="Group_817" data-name="Group 817" transform="translate(0 44.736)">
      <path id="Path_52278" data-name="Path 52278" d="M40.213,128.122V110.48m11.862,17.642V110.48M19.447,128.122H72.842M74.6,51.67H90.64v58.81h-89V51.67H17.508" transform="translate(-1.64 -51.67)" fill="none" stroke="#d3d3d3" stroke-linecap="round" stroke-linejoin="round" stroke-miterlimit="10" stroke-width="3.289"/>
      <path id="Path_52279" data-name="Path 52279" d="M75.074,58.25H85.357v47.034H8.22V58.25h9.932" transform="translate(-2.284 -52.366)" fill="none" stroke="#d3d3d3" stroke-linecap="round" stroke-linejoin="round" stroke-miterlimit="10" stroke-width="3.289"/>
    </g>
    <g id="Group_818" data-name="Group 818" transform="translate(21.731)">
      <ellipse id="Ellipse_28535" data-name="Ellipse 28535" cx="3.798" cy="3.764" rx="3.798" ry="3.764" transform="translate(18.971 15.049)" fill="none" stroke="#d3d3d3" stroke-linecap="round" stroke-linejoin="round" stroke-miterlimit="10" stroke-width="3.289"/>
      <path id="Path_52280" data-name="Path 52280" d="M39.009,24.218H36.068a2.745,2.745,0,0,0-2.751,2.727V38.417a2.738,2.738,0,0,1-2.273,2.727H28.481a2.745,2.745,0,0,0-2.751,2.727h0V54.316h7.6m24.663-30.1h2.941a2.745,2.745,0,0,1,2.751,2.727h0V38.417a2.738,2.738,0,0,0,2.273,2.727h2.472a2.735,2.735,0,0,1,2.842,2.629V54.316H63.681m-18.98.009h7.6m5.692-5.642V18.388C57.989,8.132,48.5,1.64,48.5,1.64s-9.49,6.492-9.49,16.748V48.674" transform="translate(-25.73 -1.64)" fill="none" stroke="#d3d3d3" stroke-linecap="round" stroke-linejoin="round" stroke-miterlimit="10" stroke-width="3.289"/>
      <path id="Path_52281" data-name="Path 52281" d="M45.524,63.657V59.892a5.692,5.692,0,0,0-11.384,0v3.764Zm18.98,0V59.892a5.692,5.692,0,0,0-11.384,0v3.764Z" transform="translate(-26.553 -7.208)" fill="none" stroke="#d3d3d3" stroke-linecap="round" stroke-linejoin="round" stroke-miterlimit="10" stroke-width="3.289"/>
    </g>
    <path id="Path_52282" data-name="Path 52282" d="M32.517,70.34v13.5s-6.378,1.368-6.378,7.18c0,0-17.419-2.4-17.419,14.53" transform="translate(-2.333 -8.91)" fill="none" stroke="#d3d3d3" stroke-linecap="round" stroke-linejoin="round" stroke-miterlimit="10" stroke-width="3.289"/>
    <line id="Line_66" data-name="Line 66" y2="13.332" transform="translate(35.019 61.43)" fill="none" stroke="#d3d3d3" stroke-linecap="round" stroke-linejoin="round" stroke-miterlimit="10" stroke-width="3.289"/>
    <line id="Line_67" data-name="Line 67" y2="26.575" transform="translate(39.773 61.43)" fill="none" stroke="#d3d3d3" stroke-linecap="round" stroke-linejoin="round" stroke-miterlimit="10" stroke-width="3.289"/>
    <line id="Line_68" data-name="Line 68" y2="26.575" transform="translate(49.443 61.43)" fill="none" stroke="#d3d3d3" stroke-linecap="round" stroke-linejoin="round" stroke-miterlimit="10" stroke-width="3.289"/>
    <path id="Path_52283" data-name="Path 52283" d="M67.3,70.22v13.5s6.378,1.368,6.378,7.18c0,0,17.419-2.4,17.419,14.53" transform="translate(-8.069 -8.898)" fill="none" stroke="#d3d3d3" stroke-linecap="round" stroke-linejoin="round" stroke-miterlimit="10" stroke-width="3.289"/>
    <line id="Line_69" data-name="Line 69" y2="13.332" transform="translate(54.405 61.322)" fill="none" stroke="#d3d3d3" stroke-linecap="round" stroke-linejoin="round" stroke-miterlimit="10" stroke-width="3.289"/>
  </g>
</svg>
