<svg xmlns="http://www.w3.org/2000/svg" width="92.048" height="74.097" viewBox="0 0 92.048 74.097">
  <g id="Premium_Candidates" data-name="Premium Candidates" transform="translate(1.039 1)">
    <ellipse id="Ellipse_28536" data-name="Ellipse 28536" cx="4.827" cy="4.824" rx="4.827" ry="4.824" transform="translate(40.007 26.626)" fill="none" stroke="#3bacc7" stroke-linecap="round" stroke-linejoin="round" stroke-miterlimit="10" stroke-width="2"/>
    <path id="Path_52311" data-name="Path 52311" d="M73.962,63.9H57.744A1.566,1.566,0,0,0,56.2,65.444V75.862a1.565,1.565,0,0,0,1.544,1.544h2.317V89.368a1.565,1.565,0,0,0,1.544,1.544H70.1a1.565,1.565,0,0,0,1.544-1.544V77.406h2.317a1.565,1.565,0,0,0,1.544-1.544V65.444A1.566,1.566,0,0,0,73.962,63.9Z" transform="translate(-21.019 -23.768)" fill="none" stroke="#3bacc7" stroke-linecap="round" stroke-linejoin="round" stroke-miterlimit="10" stroke-width="2"/>
    <ellipse id="Ellipse_28537" data-name="Ellipse 28537" cx="3.861" cy="3.859" rx="3.861" ry="3.859" transform="translate(19.736 13.12)" fill="none" stroke="#3bacc7" stroke-linecap="round" stroke-linejoin="round" stroke-miterlimit="10" stroke-width="2"/>
    <path id="Path_52312" data-name="Path 52312" d="M40.1,39.9H27.744A1.565,1.565,0,0,0,26.2,41.444h0v8.489a1.566,1.566,0,0,0,1.544,1.544h2.317V61.51a1.565,1.565,0,0,0,1.544,1.544h4.633a1.566,1.566,0,0,0,1.544-1.544V51.477H40.1a1.566,1.566,0,0,0,1.544-1.544h0V41.444A1.566,1.566,0,0,0,40.1,39.9Z" transform="translate(-10.325 -15.203)" fill="none" stroke="#3bacc7" stroke-linecap="round" stroke-linejoin="round" stroke-miterlimit="10" stroke-width="2"/>
    <ellipse id="Ellipse_28538" data-name="Ellipse 28538" cx="3.861" cy="3.859" rx="3.861" ry="3.859" transform="translate(62.209 13.12)" fill="none" stroke="#3bacc7" stroke-linecap="round" stroke-linejoin="round" stroke-miterlimit="10" stroke-width="2"/>
    <path id="Path_52313" data-name="Path 52313" d="M106.1,39.9H93.744A1.565,1.565,0,0,0,92.2,41.444v8.489a1.565,1.565,0,0,0,1.544,1.544h2.317V61.51a1.565,1.565,0,0,0,1.544,1.544h4.633a1.566,1.566,0,0,0,1.544-1.544V51.477H106.1a1.565,1.565,0,0,0,1.544-1.544V41.444A1.565,1.565,0,0,0,106.1,39.9Z" transform="translate(-33.852 -15.203)" fill="none" stroke="#3bacc7" stroke-linecap="round" stroke-linejoin="round" stroke-miterlimit="10" stroke-width="2"/>
    <path id="Path_52314" data-name="Path 52314" d="M35.982,79.263C22.4,74.889,12.3,56.431,12.3,38.037c0-7.332,2.252-14.149,5.02-19.937" transform="translate(-5.371 -7.424)" fill="none" stroke="#3bacc7" stroke-linecap="round" stroke-linejoin="round" stroke-miterlimit="10" stroke-width="2"/>
    <path id="Path_52315" data-name="Path 52315" d="M20.337,12.112S17.506,5.295,25.679,1.5C25.679,1.5,27.159,9.925,20.337,12.112Z" transform="translate(-8.066 -1.5)" fill="none" stroke="#3bacc7" stroke-linecap="round" stroke-linejoin="round" stroke-miterlimit="10" stroke-width="2"/>
    <path id="Path_52316" data-name="Path 52316" d="M10.792,18S7.51,23.274,8.154,25.975a16.994,16.994,0,0,0,2.638,5.338S13.946,24.3,10.792,18Z" transform="translate(-3.863 -7.388)" fill="none" stroke="#3bacc7" stroke-linecap="round" stroke-linejoin="round" stroke-miterlimit="10" stroke-width="2"/>
    <path id="Path_52317" data-name="Path 52317" d="M3.91,38.7s4.827,1.994,5.341,10.612c0,0-4.762-.643-5.341-3.987A15.052,15.052,0,0,1,3.91,38.7Z" transform="translate(-2.257 -14.775)" fill="none" stroke="#3bacc7" stroke-linecap="round" stroke-linejoin="round" stroke-miterlimit="10" stroke-width="2"/>
    <path id="Path_52318" data-name="Path 52318" d="M1.576,59.4s7.658,3.216,9.267,9.326c0,0-5.792-.643-7.722-2.637C1.125,64.031,1.576,59.4,1.576,59.4Z" transform="translate(-1.532 -22.162)" fill="none" stroke="#3bacc7" stroke-linecap="round" stroke-linejoin="round" stroke-miterlimit="10" stroke-width="2"/>
    <path id="Path_52319" data-name="Path 52319" d="M3.6,80.1s11.648.965,11.97,6.624c0,0-2.767,1.865-5.341,1.351C5.724,87.11,3.6,80.1,3.6,80.1Z" transform="translate(-2.269 -29.549)" fill="none" stroke="#3bacc7" stroke-linecap="round" stroke-linejoin="round" stroke-miterlimit="10" stroke-width="2"/>
    <path id="Path_52320" data-name="Path 52320" d="M11.8,100.8s4.054,5.338,7.658,6.624,10.94-1.351,10.94-1.351-4.633-3.537-9.331-3.987S15.4,101.765,11.8,100.8Z" transform="translate(-5.192 -36.936)" fill="none" stroke="#3bacc7" stroke-linecap="round" stroke-linejoin="round" stroke-miterlimit="10" stroke-width="2"/>
    <path id="Path_52321" data-name="Path 52321" d="M93.7,79.263c13.579-4.373,23.618-22.832,23.618-41.225,0-7.332-2.252-14.149-5.02-19.937" transform="translate(-34.387 -7.424)" fill="none" stroke="#3bacc7" stroke-linecap="round" stroke-linejoin="round" stroke-miterlimit="10" stroke-width="2"/>
    <path id="Path_52322" data-name="Path 52322" d="M119.166,12.112S122,5.295,113.825,1.5C113.825,1.5,112.345,9.925,119.166,12.112Z" transform="translate(-41.512 -1.5)" fill="none" stroke="#3bacc7" stroke-linecap="round" stroke-linejoin="round" stroke-miterlimit="10" stroke-width="2"/>
    <path id="Path_52323" data-name="Path 52323" d="M129.724,18s3.282,5.274,2.639,7.975a16.993,16.993,0,0,1-2.639,5.338S126.57,24.3,129.724,18Z" transform="translate(-46.728 -7.388)" fill="none" stroke="#3bacc7" stroke-linecap="round" stroke-linejoin="round" stroke-miterlimit="10" stroke-width="2"/>
    <path id="Path_52324" data-name="Path 52324" d="M135.741,38.7s-4.827,1.994-5.341,10.612c0,0,4.762-.643,5.341-3.987A15.052,15.052,0,0,0,135.741,38.7Z" transform="translate(-47.469 -14.775)" fill="none" stroke="#3bacc7" stroke-linecap="round" stroke-linejoin="round" stroke-miterlimit="10" stroke-width="2"/>
    <path id="Path_52325" data-name="Path 52325" d="M136.167,59.4s-7.658,3.216-9.267,9.326c0,0,5.792-.643,7.722-2.637C136.553,64.031,136.167,59.4,136.167,59.4Z" transform="translate(-46.221 -22.162)" fill="none" stroke="#3bacc7" stroke-linecap="round" stroke-linejoin="round" stroke-miterlimit="10" stroke-width="2"/>
    <path id="Path_52326" data-name="Path 52326" d="M132.57,80.1s-11.648.965-11.97,6.624c0,0,2.767,1.865,5.341,1.351C130.446,87.11,132.57,80.1,132.57,80.1Z" transform="translate(-43.976 -29.549)" fill="none" stroke="#3bacc7" stroke-linecap="round" stroke-linejoin="round" stroke-miterlimit="10" stroke-width="2"/>
    <path id="Path_52327" data-name="Path 52327" d="M120.7,100.8s-4.054,5.338-7.658,6.624-10.94-1.351-10.94-1.351,4.633-3.537,9.331-3.987S117.094,101.765,120.7,100.8Z" transform="translate(-37.381 -36.936)" fill="none" stroke="#3bacc7" stroke-linecap="round" stroke-linejoin="round" stroke-miterlimit="10" stroke-width="2"/>
  </g>
</svg>
