<svg xmlns="http://www.w3.org/2000/svg" width="64.716" height="60.375" viewBox="0 0 64.716 60.375">
  <g id="Group_860" data-name="Group 860" transform="translate(0 -0.247)">
    <ellipse id="Ellipse_31141" data-name="Ellipse 31141" cx="8" cy="7" rx="8" ry="7" transform="translate(24.578 30.247)" fill="none" stroke="#3bacc7" stroke-linecap="round" stroke-linejoin="round" stroke-miterlimit="10" stroke-width="2"/>
    <path id="Path_56555" data-name="Path 56555" d="M31.543,43A12.718,12.718,0,0,0,19,55.543v2.091H44.087V55.543A12.718,12.718,0,0,0,31.543,43Z" transform="translate(0.815 1.989)" fill="none" stroke="#3bacc7" stroke-linecap="round" stroke-linejoin="round" stroke-miterlimit="10" stroke-width="2"/>
    <circle id="Ellipse_31142" data-name="Ellipse 31142" cx="6" cy="6" r="6" transform="translate(47.578 1.247)" stroke-width="2" stroke="#3bacc7" stroke-linecap="round" stroke-linejoin="round" stroke-miterlimit="10" fill="none"/>
    <path id="Path_56556" data-name="Path 56556" d="M61.906,25.543C61.906,17.7,57.2,13,51.453,13S41,17.7,41,25.543Z" transform="translate(1.811 0.63)" fill="none" stroke="#3bacc7" stroke-linecap="round" stroke-linejoin="round" stroke-miterlimit="10" stroke-width="2"/>
    <circle id="Ellipse_31143" data-name="Ellipse 31143" cx="6" cy="6" r="6" transform="translate(5.578 1.247)" stroke-width="2" stroke="#3bacc7" stroke-linecap="round" stroke-linejoin="round" stroke-miterlimit="10" fill="none"/>
    <path id="Path_56557" data-name="Path 56557" d="M21.905,25.543C21.905,17.7,17.2,13,11.453,13S1,17.7,1,25.543Z" transform="translate(0 0.63)" fill="none" stroke="#3bacc7" stroke-linecap="round" stroke-linejoin="round" stroke-miterlimit="10" stroke-width="2"/>
    <path id="Path_56558" data-name="Path 56558" d="M11,31.905l8.362,8.362m33.449-8.362-8.362,8.362M23.543,11H40.268" transform="translate(0.453 0.54)" fill="none" stroke="#3bacc7" stroke-linecap="round" stroke-linejoin="round" stroke-miterlimit="10" stroke-width="2"/>
  </g>
</svg>
