<svg xmlns="http://www.w3.org/2000/svg" width="80.26" height="108.359" viewBox="0 0 80.26 108.359">
  <g id="Group_910" data-name="Group 910" transform="translate(0 -0.359)">
    <circle id="Ellipse_31136" data-name="Ellipse 31136" cx="12.5" cy="12.5" r="12.5" transform="translate(13.13 1.359)" stroke-width="2" stroke="#3bacc7" stroke-linecap="round" stroke-linejoin="round" stroke-miterlimit="10" fill="none"/>
    <path id="Path_56551" data-name="Path 56551" d="M45.466,21H6.336A5.241,5.241,0,0,0,1,26.336V54.794A5.241,5.241,0,0,0,6.336,60.13h5.336V86.81a5.241,5.241,0,0,0,5.336,5.336H34.794A5.241,5.241,0,0,0,40.13,86.81V60.13h5.336A5.241,5.241,0,0,0,50.8,54.794V26.336A5.241,5.241,0,0,0,45.466,21Z" transform="translate(0 15.573)" fill="none" stroke="#3bacc7" stroke-linecap="round" stroke-linejoin="round" stroke-miterlimit="10" stroke-width="2"/>
    <path id="Path_56552" data-name="Path 56552" d="M57.245,56.573H71.474V92.146H57.245ZM64.359,45.9V56.573M18.115,21l7.115,24.9-7.115,7.115L11,45.9,18.115,21" transform="translate(7.786 15.573)" fill="none" stroke="#3bacc7" stroke-linecap="round" stroke-linejoin="round" stroke-miterlimit="10" stroke-width="2"/>
  </g>
</svg>
