<svg xmlns="http://www.w3.org/2000/svg" width="113.692" height="98.8" viewBox="0 0 113.692 98.8">
  <g id="Group_951" data-name="Group 951" transform="translate(-1035 -3403.2)">
    <path id="Path_77483" data-name="Path 77483" d="M50.4,102.8V80.461M65.292,102.8V80.461M24.338,102.8H91.354M2,6H113.692V80.461H2Z" transform="translate(1034 3398.2)" fill="none" stroke="#3bacc7" stroke-linecap="round" stroke-linejoin="round" stroke-width="2"/>
    <path id="Path_77484" data-name="Path 77484" d="M6,10h96.8V69.55H6Z" transform="translate(1037.446 3401.646)" fill="none" stroke="#3bacc7" stroke-linecap="round" stroke-linejoin="round" stroke-width="2"/>
    <g id="Group_943" data-name="Group 943">
      <path id="Path_77485" data-name="Path 77485" d="M36.391,15.488c-4.494,0-9.486,2.71-9.486,9.76v6.51c0,4.868,2.217,9.069,5.425,11.028m8.124,0c3.207-1.958,5.423-6.16,5.423-11.028v-6.51c0-7.05-4.993-9.76-9.485-9.76" transform="translate(1055.457 3406.375)" fill="none" stroke="#3bacc7" stroke-linecap="round" stroke-linejoin="round" stroke-width="2"/>
      <path id="Path_77486" data-name="Path 77486" d="M47.453,25.965C33.9,25.965,33.9,15.915,33.9,15.915s.959,11.407-5.425,11.407M47.1,47.9c-4.386-1.031-4.388-3.159-4.388-4.309V42.237M35.251,55.795h5.425M33.218,42.237v1.355c0,1.141,0,3.263-4.607,4.295m-.134-16.5s-.683,10.847-3.4,13.559c2.712,2.71,3.34,2.978,3.34,2.978" transform="translate(1053.885 3406.742)" fill="none" stroke="#3bacc7" stroke-linecap="round" stroke-linejoin="round" stroke-width="2"/>
      <path id="Path_77487" data-name="Path 77487" d="M37.436,24.228s.685,10.847,3.4,13.559c-2.71,2.71-4.131,2.857-4.131,2.857" transform="translate(1063.896 3413.904)" fill="none" stroke="#3bacc7" stroke-linecap="round" stroke-linejoin="round" stroke-width="2"/>
      <path id="Path_77488" data-name="Path 77488" d="M61.751,41A9.351,9.351,0,0,0,53.33,33.54a20.7,20.7,0,0,1-2.783-.436L44.126,41Zm-32.8-7.457A8.45,8.45,0,0,0,21.075,41H38.7l-6.64-7.908a23.443,23.443,0,0,1-3.116.45Z" transform="translate(1050.434 3421.539)" fill="none" stroke="#3bacc7" stroke-linecap="round" stroke-linejoin="round" stroke-width="2"/>
    </g>
  </g>
</svg>
