<svg xmlns="http://www.w3.org/2000/svg" width="92.085" height="58.625" viewBox="0 0 92.085 58.625">
  <g id="Group_853" data-name="Group 853" transform="translate(-0.586 -0.995)">
    <path id="Path_56528" data-name="Path 56528" d="M92.9,37.387a43.879,43.879,0,0,0,7.078-1.655c3.653-1.313,3.539-3.2,3.539-4.224v-2.34M102.6,4.338A10.3,10.3,0,0,1,109.453,2c4.738,0,10.617,2.854,10.617,10.16v6.849a13.518,13.518,0,0,1-4.738,10.16v2.226c0,1.427-.114,3.881,6.964,5.308a10.65,10.65,0,0,1,8.391,7.763V49.2H118.871" transform="translate(-39.015 0)" fill="none" stroke="#3bacc7" stroke-linecap="round" stroke-linejoin="round" stroke-miterlimit="10" stroke-width="2"/>
    <path id="Path_56529" data-name="Path 56529" d="M50.968,42.811l-7.135,1.769c-7.591,1.827-8.733,9.3-8.733,9.3v4.738H86.985V53.885s0-7.991-10.16-9.532c-8.847-1.2-8.733-4.338-8.733-5.993v-2.74c3.2-2.854,4.738-7.534,4.738-12.843V14.5c0-8.961-6.05-12.5-11.815-12.5S49.256,5.539,49.256,14.5v8.276c0,5.308,1.541,10.16,4.738,12.957v2.854c0,1.2.342,2.74-2.511,4.053" transform="translate(-14.207 -0.002)" fill="none" stroke="#3bacc7" stroke-linecap="round" stroke-linejoin="round" stroke-miterlimit="10" stroke-width="2"/>
    <path id="Path_56530" data-name="Path 56530" d="M24,55.207V22.9" transform="translate(-9.443 -8.973)" fill="none" stroke="#3bacc7" stroke-linecap="round" stroke-linejoin="round" stroke-miterlimit="10" stroke-width="2"/>
    <path id="Path_56531" data-name="Path 56531" d="M2,57.5,14.557,70.057,27.115,57.5" transform="translate(0 -23.823)" fill="none" stroke="#3bacc7" stroke-linecap="round" stroke-linejoin="round" stroke-miterlimit="10" stroke-width="2"/>
  </g>
</svg>
