<svg xmlns="http://www.w3.org/2000/svg" width="121.263" height="82.363" viewBox="0 0 121.263 82.363">
  <g id="Group_872" data-name="Group 872" transform="translate(-1 -1)">
    <ellipse id="Ellipse_33740" data-name="Ellipse 33740" cx="6" cy="5.5" rx="6" ry="5.5" transform="translate(41.091 2.691)" fill="none" stroke="#3eabc7" stroke-linecap="round" stroke-linejoin="round" stroke-miterlimit="10" stroke-width="2"/>
    <path id="Path_60749" data-name="Path 60749" d="M43.657,38.856V51.112a2.778,2.778,0,0,0,2.828,2.828h5.657a2.778,2.778,0,0,0,2.828-2.828V38.856H57.8a2.778,2.778,0,0,0,2.828-2.828v-13.2A2.778,2.778,0,0,0,57.8,20H40.828A2.778,2.778,0,0,0,38,22.828v.943" transform="translate(-2.06 -1.03)" fill="none" stroke="#3eabc7" stroke-linecap="round" stroke-linejoin="round" stroke-miterlimit="10" stroke-width="2"/>
    <circle id="Ellipse_33741" data-name="Ellipse 33741" cx="5.5" cy="5.5" r="5.5" transform="translate(8.091 2.691)" stroke-width="2" stroke="#3eabc7" stroke-linecap="round" stroke-linejoin="round" stroke-miterlimit="10" fill="none"/>
    <path id="Path_60750" data-name="Path 60750" d="M24.627,22.828A2.778,2.778,0,0,0,21.8,20H4.828A2.778,2.778,0,0,0,2,22.828v13.2a2.778,2.778,0,0,0,2.828,2.828H7.657V51.112a2.778,2.778,0,0,0,2.828,2.828h5.657a2.778,2.778,0,0,0,2.828-2.828V38.856" transform="translate(0 -1.03)" fill="none" stroke="#3eabc7" stroke-linecap="round" stroke-linejoin="round" stroke-miterlimit="10" stroke-width="2"/>
    <ellipse id="Ellipse_33742" data-name="Ellipse 33742" cx="6" cy="5.5" rx="6" ry="5.5" transform="translate(24.091 5.691)" fill="none" stroke="#3eabc7" stroke-linecap="round" stroke-linejoin="round" stroke-miterlimit="10" stroke-width="2"/>
    <path id="Path_60751" data-name="Path 60751" d="M39.8,24H22.828A2.778,2.778,0,0,0,20,26.828v13.2a2.778,2.778,0,0,0,2.828,2.828h2.828V55.112a2.778,2.778,0,0,0,2.828,2.828h5.657a2.778,2.778,0,0,0,2.828-2.828h0V42.856H39.8a2.778,2.778,0,0,0,2.828-2.828v-13.2A2.778,2.778,0,0,0,39.8,24Z" transform="translate(-1.03 -1.259)" fill="none" stroke="#3eabc7" stroke-linecap="round" stroke-linejoin="round" stroke-miterlimit="10" stroke-width="2"/>
    <circle id="Ellipse_33743" data-name="Ellipse 33743" cx="5.657" cy="5.657" r="5.657" transform="translate(104.293 2)" stroke-width="2" stroke="#3eabc7" stroke-linecap="round" stroke-linejoin="round" stroke-miterlimit="10" fill="none"/>
    <path id="Path_60752" data-name="Path 60752" d="M110.157,38.856V51.112a2.778,2.778,0,0,0,2.828,2.828h5.657a2.778,2.778,0,0,0,2.828-2.828V38.856H124.3a2.778,2.778,0,0,0,2.828-2.828v-13.2A2.778,2.778,0,0,0,124.3,20h-16.97a2.778,2.778,0,0,0-2.828,2.828v.943" transform="translate(-5.864 -1.03)" fill="none" stroke="#3eabc7" stroke-linecap="round" stroke-linejoin="round" stroke-miterlimit="10" stroke-width="2"/>
    <circle id="Ellipse_33744" data-name="Ellipse 33744" cx="5.657" cy="5.657" r="5.657" transform="translate(70.352 2)" stroke-width="2" stroke="#3eabc7" stroke-linecap="round" stroke-linejoin="round" stroke-miterlimit="10" fill="none"/>
    <path id="Path_60753" data-name="Path 60753" d="M91.127,22.828A2.778,2.778,0,0,0,88.3,20H71.328A2.778,2.778,0,0,0,68.5,22.828v13.2a2.778,2.778,0,0,0,2.828,2.828h2.828V51.112a2.778,2.778,0,0,0,2.828,2.828h5.657a2.778,2.778,0,0,0,2.828-2.828V38.856" transform="translate(-3.805 -1.03)" fill="none" stroke="#3eabc7" stroke-linecap="round" stroke-linejoin="round" stroke-miterlimit="10" stroke-width="2"/>
    <circle id="Ellipse_33745" data-name="Ellipse 33745" cx="5.657" cy="5.657" r="5.657" transform="translate(87.322 5.771)" stroke-width="2" stroke="#3eabc7" stroke-linecap="round" stroke-linejoin="round" stroke-miterlimit="10" fill="none"/>
    <path id="Path_60754" data-name="Path 60754" d="M106.3,24H89.328A2.778,2.778,0,0,0,86.5,26.828v13.2a2.778,2.778,0,0,0,2.828,2.828h2.828V55.112a2.778,2.778,0,0,0,2.828,2.828h5.657a2.778,2.778,0,0,0,2.828-2.828h0V42.856H106.3a2.778,2.778,0,0,0,2.828-2.828v-13.2A2.836,2.836,0,0,0,106.3,24Z" transform="translate(-4.834 -1.259)" fill="none" stroke="#3eabc7" stroke-linecap="round" stroke-linejoin="round" stroke-miterlimit="10" stroke-width="2"/>
    <path id="Path_60755" data-name="Path 60755" d="M73.6,75.5,84.254,86.154" transform="translate(-4.096 -4.205)" fill="none" stroke="#3eabc7" stroke-linecap="round" stroke-linejoin="round" stroke-miterlimit="10" stroke-width="2"/>
    <circle id="Ellipse_33746" data-name="Ellipse 33746" cx="10.654" cy="10.654" r="10.654" transform="translate(51.308 53.005)" stroke-width="2" stroke="#3eabc7" stroke-linecap="round" stroke-linejoin="round" stroke-miterlimit="10" fill="none"/>
  </g>
</svg>
