<svg id="Group_857" data-name="Group 857" xmlns="http://www.w3.org/2000/svg" width="78.54" height="76.13" viewBox="0 0 78.54 76.13">
  <path id="Path_56541" data-name="Path 56541" d="M34.9,52.938V26.113a3.213,3.213,0,0,1,6.425,0V42.175" transform="translate(-6.673 -4.311)" fill="none" stroke="#3bacc7" stroke-linecap="round" stroke-linejoin="round" stroke-miterlimit="10" stroke-width="2"/>
  <path id="Path_56542" data-name="Path 56542" d="M33.325,45.8a3.213,3.213,0,0,0-6.425,0v8.835c0,4.819,4.979,10.6,4.979,10.6,1.928,2.249,4.016,3.855,6.907,3.855H51.075a8.055,8.055,0,0,0,8.031-8.031V54.632M46.175,43.388V24.113a3.213,3.213,0,1,0-6.425,0v1.606m6.425,0a3.213,3.213,0,1,1,6.425,0V44.994" transform="translate(-5.099 -3.917)" fill="none" stroke="#3bacc7" stroke-linecap="round" stroke-linejoin="round" stroke-miterlimit="10" stroke-width="2"/>
  <path id="Path_56543" data-name="Path 56543" d="M58.9,30.113a3.213,3.213,0,0,1,6.425,0V60.632" transform="translate(-11.398 -5.099)" fill="none" stroke="#3bacc7" stroke-linecap="round" stroke-linejoin="round" stroke-miterlimit="10" stroke-width="2"/>
  <path id="Path_56544" data-name="Path 56544" d="M57.732,90.82H36.69a2.5,2.5,0,0,1-2.49-2.49V83.19a2.5,2.5,0,0,1,2.49-2.49H57.732a2.5,2.5,0,0,1,2.49,2.49v5.14A2.452,2.452,0,0,1,57.732,90.82Z" transform="translate(-6.536 -15.689)" fill="none" stroke="#3bacc7" stroke-linecap="round" stroke-linejoin="round" stroke-miterlimit="10" stroke-width="2"/>
  <path id="Path_56545" data-name="Path 56545" d="M30.587,31.5H27.857c-4.819,0-10.6,4.979-10.6,4.979C15.006,38.407,13.4,40.5,13.4,43.387V55.675a8.055,8.055,0,0,0,8.031,8.031h4.979" transform="translate(-2.441 -6.004)" fill="none" stroke="#3bacc7" stroke-linecap="round" stroke-linejoin="round" stroke-miterlimit="10" stroke-width="2"/>
  <path id="Path_56546" data-name="Path 56546" d="M1,62.312V41.19A2.5,2.5,0,0,1,3.49,38.7H8.63a2.5,2.5,0,0,1,2.49,2.49V62.232a2.5,2.5,0,0,1-2.49,2.49H3.49A2.435,2.435,0,0,1,1,62.312Z" transform="translate(0 -7.421)" fill="none" stroke="#3bacc7" stroke-linecap="round" stroke-linejoin="round" stroke-miterlimit="10" stroke-width="2"/>
  <path id="Path_56547" data-name="Path 56547" d="M65.9,68.226c4.819,0,10.6-4.979,10.6-4.979,2.249-1.928,3.855-4.016,3.855-6.907V44.131A8.055,8.055,0,0,0,72.325,36.1H67.346" transform="translate(-12.776 -6.91)" fill="none" stroke="#3bacc7" stroke-linecap="round" stroke-linejoin="round" stroke-miterlimit="10" stroke-width="2"/>
  <path id="Path_56548" data-name="Path 56548" d="M93.82,38.79V59.832a2.5,2.5,0,0,1-2.49,2.49H86.19a2.5,2.5,0,0,1-2.49-2.49V38.79a2.5,2.5,0,0,1,2.49-2.49h5.14A2.614,2.614,0,0,1,93.82,38.79Z" transform="translate(-16.28 -6.949)" fill="none" stroke="#3bacc7" stroke-linecap="round" stroke-linejoin="round" stroke-miterlimit="10" stroke-width="2"/>
  <path id="Path_56549" data-name="Path 56549" d="M59.006,27.535v-6.1A8.055,8.055,0,0,0,50.975,13.4H38.687c-2.811,0-4.9,1.606-6.907,3.855,0,0-4.979,5.783-4.979,10.6" transform="translate(-5.079 -2.441)" fill="none" stroke="#3bacc7" stroke-linecap="round" stroke-linejoin="round" stroke-miterlimit="10" stroke-width="2"/>
  <path id="Path_56550" data-name="Path 56550" d="M57.732,1H36.69A2.5,2.5,0,0,0,34.2,3.49V8.63a2.5,2.5,0,0,0,2.49,2.49H57.732a2.5,2.5,0,0,0,2.49-2.49V3.49A2.5,2.5,0,0,0,57.732,1Z" transform="translate(-6.536)" fill="none" stroke="#3bacc7" stroke-linecap="round" stroke-linejoin="round" stroke-miterlimit="10" stroke-width="2"/>
</svg>
