<svg xmlns="http://www.w3.org/2000/svg" width="62.189" height="83.359" viewBox="0 0 62.189 83.359">
  <g id="Group_858" data-name="Group 858" transform="translate(0 -0.799)">
    <circle id="Ellipse_31136" data-name="Ellipse 31136" cx="9.5" cy="9.5" r="9.5" transform="translate(10.059 1.799)" stroke-width="2" stroke="#3bacc7" stroke-linecap="round" stroke-linejoin="round" stroke-miterlimit="10" fill="none"/>
    <path id="Path_56551" data-name="Path 56551" d="M35.2,21H5.1A4.031,4.031,0,0,0,1,25.1V46.991a4.031,4.031,0,0,0,4.1,4.1h4.1V71.613a4.031,4.031,0,0,0,4.1,4.1H26.991a4.031,4.031,0,0,0,4.1-4.1V51.094h4.1a4.031,4.031,0,0,0,4.1-4.1V25.1A4.031,4.031,0,0,0,35.2,21Z" transform="translate(0 7.441)" fill="none" stroke="#3bacc7" stroke-linecap="round" stroke-linejoin="round" stroke-miterlimit="10" stroke-width="2"/>
    <path id="Path_56552" data-name="Path 56552" d="M46.566,48.358H57.509V75.717H46.566Zm5.472-8.208v8.208M16.472,21l5.472,19.151-5.472,5.472L11,40.151,16.472,21" transform="translate(3.679 7.441)" fill="none" stroke="#3bacc7" stroke-linecap="round" stroke-linejoin="round" stroke-miterlimit="10" stroke-width="2"/>
  </g>
</svg>
