<svg xmlns="http://www.w3.org/2000/svg" width="101.657" height="96.766" viewBox="0 0 101.657 96.766">
  <g id="Group_884" data-name="Group 884" transform="translate(-0.5 -0.28)">
    <circle id="Ellipse_33747" data-name="Ellipse 33747" cx="10.018" cy="10.018" r="10.018" transform="translate(1.5 12.843)" fill="none" stroke="#3eabc7" stroke-miterlimit="10" stroke-width="2"/>
    <g id="Group_883" data-name="Group 883" transform="translate(36.71 0.28)">
      <g id="Group_873" data-name="Group 873" transform="translate(0 37.387)">
        <path id="Path_60756" data-name="Path 60756" d="M139.49,149.423H139.1c-.359,0-.8,0-1.021-.276a.625.625,0,0,1-.083-.635c.028-.083.028-.166.055-.248a1.029,1.029,0,0,0,.055-.552.635.635,0,0,0-.359-.138H137.5a1.084,1.084,0,0,1-.8-.221.976.976,0,0,1-.166-.938c0-.083.028-.138.028-.193a.46.46,0,0,0-.138-.442.982.982,0,0,0-.8-.138.548.548,0,0,0-.442.248,1.058,1.058,0,0,0-.028.883,1.812,1.812,0,0,1-.524,1.711c-.359.414-.966.221-1.38.083-.083-.028-.193-.055-.276-.083a3.676,3.676,0,0,1-1.076-.58c-.193-.138-.386-.276-.58-.386a3.517,3.517,0,0,1-1.132-1.076c-.083-.11-.166-.193-.248-.3a3.682,3.682,0,0,1-.718-1.38c-.166-.524-.359-1.132.5-1.573a2.195,2.195,0,0,1,.552-.166c.469-.11.8-.221.8-.469,0-.166-.221-.359-.386-.524-.221-.193-.442-.386-.414-.635a.373.373,0,0,1,.248-.331h0a1.733,1.733,0,0,1,.911-.166,1.572,1.572,0,0,0,.718-.11,2.985,2.985,0,0,0,.994-1.187,2.442,2.442,0,0,0,.276-.828c.055-.193.083-.414.166-.635a1.3,1.3,0,0,1,.718-.8,1,1,0,0,1,.745.028,1.449,1.449,0,0,1,.3.193,1.1,1.1,0,0,0,.359.193h0c.276.083.276.083.442-.055a1.643,1.643,0,0,0,.5-.58.3.3,0,0,0,0-.221.54.54,0,0,1,.221-.58.673.673,0,0,1,.69.055.466.466,0,0,0,.138.055,1.236,1.236,0,0,0,.635,0,1.3,1.3,0,0,0,.248-.166c.055-.028.083-.083.138-.11a.906.906,0,0,1,.386-.166,1.2,1.2,0,0,0,.138-.028c.055-.028.11-.028.138-.055a.817.817,0,0,1,.331-.083h.028a2.456,2.456,0,0,1,1.546.11,1.462,1.462,0,0,0,.524.138,1.38,1.38,0,0,1,.966.442,1.106,1.106,0,0,1,.221.635c0,.083.028.138.028.193a.539.539,0,0,1,.028.193.207.207,0,0,0,.028.138c0,.028.028.055.055.083a.647.647,0,0,1,.138.276,1.188,1.188,0,0,1,0,.442,1.113,1.113,0,0,0,0,.3.774.774,0,0,0,.221.331.991.991,0,0,1,.193.276,3.731,3.731,0,0,0,.69.773c.083.083.193.166.3.276a1.109,1.109,0,0,1,.386.966.936.936,0,0,1-.58.69c-.028,0-.055.028-.11.055-.276.138-.966.442-.911.745a.121.121,0,0,0,.028.083c.11.055.58-.221.745-.331a1.815,1.815,0,0,1,.331-.166,1.328,1.328,0,0,1,1.822.745c.138.3.773,2.125.442,2.787a.447.447,0,0,1-.331.276.475.475,0,0,1-.331-.055c-.248-.166-.331-.607-.414-1.076a3.622,3.622,0,0,0-.166-.69c-.083-.166-.386-.607-.607-.662a.15.15,0,0,0-.138.083c-.055.083.11.5.166.635.055.11.083.221.11.276.028.138.028.248.055.359a2.13,2.13,0,0,0,.055.414,1.388,1.388,0,0,0,.138.359,1.03,1.03,0,0,1,0,1.187.708.708,0,0,1-1.021.166c-.248-.11-.414-.166-.552-.083-.248.138-.248.386-.248.773a1.691,1.691,0,0,1-.11.745,1.076,1.076,0,0,1-1.49.524l-.083-.028a3.108,3.108,0,0,1-.773-.331.738.738,0,0,0-.58-.193c-.055.028-.11.138-.193.221a1.6,1.6,0,0,1-.276.331A.655.655,0,0,1,139.49,149.423Zm-8.914-8.114Z" transform="translate(-129.08 -135.747)" fill="#3bacc7"/>
      </g>
      <g id="Group_874" data-name="Group 874" transform="translate(9.499 0)">
        <path id="Path_60757" data-name="Path 60757" d="M171.807,96.246a1.718,1.718,0,0,1-1.049-.607,1.417,1.417,0,0,0-.718-.5,1.149,1.149,0,0,0-.718.166,1.986,1.986,0,0,1-.718.221.894.894,0,0,1-.856-.3.815.815,0,0,1-.028-.828c.331-.911.883-1.1,1.656-1.38l.11-.028a3.868,3.868,0,0,1,.773-.166,2.192,2.192,0,0,0,1.1-.386,4.888,4.888,0,0,0,.883-1.3,8.035,8.035,0,0,1,.469-.828,4.233,4.233,0,0,1,1.3-1.159l.5-.331a2.075,2.075,0,0,0,.442-.414l.138-.138c.083-.083.193-.166.276-.248a2.661,2.661,0,0,0,.718-.773,1.653,1.653,0,0,0,.055-.662,2.046,2.046,0,0,1,.028-.58,1.889,1.889,0,0,1,.524-1.076,1.251,1.251,0,0,1,.58-.276,1.083,1.083,0,0,0,.359-.138,2.467,2.467,0,0,0,.635-.8,2.4,2.4,0,0,1,1.96-1.518h.055a9.755,9.755,0,0,1,2.373,0c.083.028.193.028.276.055.276.055.58.11.856.138a4.287,4.287,0,0,1,.58.11,3.209,3.209,0,0,0,.5.11,5.73,5.73,0,0,0,1.214-.083,1.411,1.411,0,0,0,.69-.469l.083-.083a2.487,2.487,0,0,0,.248-.276,6.537,6.537,0,0,0,1.132-1.38c.193-.359.221-.69.055-.883-.11-.166-.359-.221-.69-.166a2.641,2.641,0,0,0-1.27.718,5.839,5.839,0,0,1-.745.58,2.823,2.823,0,0,1-2.567.166,2.779,2.779,0,0,1-1.214-1.325c-.083-.138-.138-.248-.221-.386-.221-.386-.8-.331-1.325-.3-.166,0-.3.028-.469.028A2.138,2.138,0,0,1,178.155,78l-.083-.083a1.4,1.4,0,0,0-.773-.5,2.809,2.809,0,0,0-.966-.083,1.653,1.653,0,0,0-.69.276c-.11.055-.248.138-.359.193a3.594,3.594,0,0,1-2.429.276,1.152,1.152,0,0,1-.994-1.076A5.143,5.143,0,0,1,172,75.437a2.718,2.718,0,0,1,1.656-1.877c.248-.11.5-.248.718-.359a7.5,7.5,0,0,1,1.27-.58,6.5,6.5,0,0,0,3.643-2.318,1.409,1.409,0,0,0,.193-.607,2.87,2.87,0,0,1,.055-.414,2.331,2.331,0,0,1,.138-.469,1.363,1.363,0,0,0,.138-.662l-.083-.331a1.612,1.612,0,0,1-.11-.5,3.479,3.479,0,0,1,.11-.773c.028-.083.028-.166.055-.248a2.412,2.412,0,0,0-.083-1.076V65.2c-.083-.386-.166-.552-.386-.635-.386-.138-.524-.055-.938.248a1.933,1.933,0,0,0-.276.221,4.326,4.326,0,0,1-.828.552,2.1,2.1,0,0,1-.911.138h-.055a.713.713,0,0,1-.745-.442,1.5,1.5,0,0,1,.552-1.435,8,8,0,0,1,.8-.524,3.99,3.99,0,0,0,.938-.635c.331-.331.386-.442.276-.828a.861.861,0,0,0-.414-.69,3.1,3.1,0,0,1-1.435-1.711.922.922,0,0,1,.248-1.076,2.8,2.8,0,0,1,1.573-.248,1.833,1.833,0,0,1,1.132.8,1.71,1.71,0,0,0,.8.662,1.575,1.575,0,0,0,.911-.138,4.193,4.193,0,0,1,.552-.166,2.539,2.539,0,0,1,.911.055,1.617,1.617,0,0,0,.718.055,3.676,3.676,0,0,0,.524-.138,2.108,2.108,0,0,1,.745-.166c.166,0,.331.028.5.028a1.57,1.57,0,0,0,.718,0c.331-.138.58-.856.58-1.325a3.132,3.132,0,0,1,.662-1.959c.331-.469.5-.745.221-1.132a.97.97,0,0,0-.193-.248.7.7,0,0,1-.193-.828,2.929,2.929,0,0,1,.5-.966c.469-.552.911-1.132.69-1.684a.538.538,0,0,0-.58-.414,5.879,5.879,0,0,0-.745.055l-.248.083a1.386,1.386,0,0,1-.359.138c-.883.166-1.573-.469-1.9-1.739a4.186,4.186,0,0,1-.083-.58,2.58,2.58,0,0,0-.11-.69,1.327,1.327,0,0,0-.386-.414,3.608,3.608,0,0,1-.331-.3c-.607-.69-.469-1.656.331-2.843a5.9,5.9,0,0,0,.966-1.849c.055-.221.166-.745-.166-.938a1.111,1.111,0,0,0-1.214.276,2.224,2.224,0,0,0-.331.5,3.181,3.181,0,0,1-.524.718,2.866,2.866,0,0,1-1.408.718,1.755,1.755,0,0,1-1.352-.442,1.838,1.838,0,0,0-.994-.414c-.166,0-.193.055-.221.083-.055.055-.11.193-.028.58.083.414.138.911-.138,1.159a.577.577,0,0,1-.607.11c-.386-.083-.607-.524-.828-.938a2.509,2.509,0,0,0-.5-.718,1.586,1.586,0,0,0-.745-.3h0c-.331,0-.331.11-.359.414a1.876,1.876,0,0,1-.083.524.969.969,0,0,1-.5.5.527.527,0,0,1-.5,0c-.359-.166-.469-.69-.552-1.049,0-.055-.028-.083-.028-.11-.028-.083-.028-.166-.055-.248a3.6,3.6,0,0,1,0-2.346,6.4,6.4,0,0,1,.938-1.325,5.649,5.649,0,0,0,.718-.938c.138-.221.276-.469.386-.69.221-.386.442-.8.69-1.159.469-.662.773-1.1.414-1.794a2.062,2.062,0,0,0-.69-.69,2.214,2.214,0,0,1-.883-1.049A1.347,1.347,0,0,0,173.16,32c-1.518.442-2.07,2.484-2.07,3.753a2.158,2.158,0,0,1-.69,1.739,1.851,1.851,0,0,1-1.214.414.736.736,0,0,1-.414-.359,1.389,1.389,0,0,1,.028-1.1,1.139,1.139,0,0,1,.276-.359,1.031,1.031,0,0,0,.166-.193,1.927,1.927,0,0,0,.221-.552c.028-.055.028-.11.055-.166a12.281,12.281,0,0,0,.58-2.567c.028-.359.055-.718.055-1.049a11.4,11.4,0,0,1,.221-2.153,3.174,3.174,0,0,1,.166-.469,1.558,1.558,0,0,0,.166-.552v-.359a4.273,4.273,0,0,1,.028-.58c.028-.193.055-.414.083-.607.028-.248.055-.469.083-.718a5.258,5.258,0,0,1,.5-1.3l.055-.138c.055-.11.11-.221.193-.359a4.608,4.608,0,0,0,.635-1.739.3.3,0,0,0-.166-.276.169.169,0,0,0-.166-.028c-.3.11-.58.635-.718,1.076-.055.138-.083.276-.138.414a5.665,5.665,0,0,1-1.187,2.291,4.224,4.224,0,0,1-2.346.828c-.055,0-.138.028-.221.028a2.8,2.8,0,0,1-1.518-.028.715.715,0,0,1-.3-.69.617.617,0,0,1,.5-.552c1.187-.5,1.159-1.1,1.021-1.518-.221-.635-.69-2.125.055-2.815a2.377,2.377,0,0,1,1.214-.5,2.111,2.111,0,0,0,1.021-.414.848.848,0,0,0,.276-.883.539.539,0,0,0-.028-.193,3.007,3.007,0,0,0-.166-.938c-.055-.055-.193-.055-.331-.055a.826.826,0,0,1-.635-.193,1.138,1.138,0,0,1-.248-.828c0-.138,0-.359-.055-.386-.083-.083-.442-.083-.635-.083h-.359a1.383,1.383,0,0,1-.938-.359,1.556,1.556,0,0,1-.442-.966,1.261,1.261,0,0,0-.414-.828,2.736,2.736,0,0,0-.635-.276c-.524-.193-1.214-.414-1.214-1.159,0-.5.359-.662.607-.8.055-.028.138-.055.193-.083a1.785,1.785,0,0,0,.248-.221,1.1,1.1,0,0,1,.331-.276.709.709,0,0,1,.662-.028.5.5,0,0,0,.276.028c.193-.055.276-.193.414-.414a1.14,1.14,0,0,1,.193-.3.746.746,0,0,1,.662-.359c.359.055.524.469.69.883a2.421,2.421,0,0,1,.055.994,3.518,3.518,0,0,0-.028.524A4.248,4.248,0,0,0,168,14.361c.193.5.635,1.076,1.076,1.159a.657.657,0,0,0,.58-.248c.166-.193.11-.386-.055-.718a1.873,1.873,0,0,1-.193-.552,6.583,6.583,0,0,1-.028-1.3c.055-.69.138-1.463.276-2.235,0-.083.028-.166.028-.248a1.673,1.673,0,0,1,.359-.966,2.265,2.265,0,0,1,1.3-.718c.5-.11.828-.248.883-.607a1.3,1.3,0,0,0-.055-.552,2.264,2.264,0,0,1-.055-.607,1.22,1.22,0,0,1,.166-.442,1.153,1.153,0,0,0,.11-.276.468.468,0,0,0,0-.276,1.367,1.367,0,0,1,.055-.469,1.662,1.662,0,0,1,.69-.69c.083-.055.193-.11.276-.166l.028-.028a1.788,1.788,0,0,0,.469-.442,1.963,1.963,0,0,0,.028-.442v-.3c.028-.248.028-.469.055-.718a4.677,4.677,0,0,1,.028-.607,1.472,1.472,0,0,1,.662-1.187c.028,0,.055-.028.083-.055a.9.9,0,0,1,.718-.138,2.284,2.284,0,0,1,.442.248.838.838,0,0,0,.193.138.211.211,0,0,0,.138.055,3.4,3.4,0,0,0,1.076.221,2.355,2.355,0,0,0,.442,0,4.076,4.076,0,0,1,.58.028c.11.028.193.028.3.055a3.245,3.245,0,0,0,.745.083.477.477,0,0,0,.359-.138A.838.838,0,0,1,180.142,1a2.981,2.981,0,0,1,1.1-.055,2.443,2.443,0,0,0,1.1-.083,2.432,2.432,0,0,1,.938-.276,5.955,5.955,0,0,0,.745-.138c.11-.028.221-.055.359-.083,1.1-.221,1.822-.028,2.125.58a4.385,4.385,0,0,1,.028,1.463,2.953,2.953,0,0,1-.442.994,8.426,8.426,0,0,1-1.49,1.766,7.953,7.953,0,0,1-.966.718,9.115,9.115,0,0,0-.828.607,12.847,12.847,0,0,0-1.435,1.546l-.028.028c-.028.028-.055.083-.083.11-.248.276-.359.442-.3.718.028.138.083.166.221.248a.848.848,0,0,1,.5.524,1.47,1.47,0,0,1-.552,1.352,1.771,1.771,0,0,0-.442.635c-.028.11-.083.248,0,.3.138.166.718.11,1.132,0a4.66,4.66,0,0,0,.994-.469,4.891,4.891,0,0,1,.856-.414,3.08,3.08,0,0,1,1.932,0c.166.028.3.083.469.11a3.963,3.963,0,0,0,1.27-.055,5.849,5.849,0,0,1,1.214-.11c.193.028.359.028.524.055.221.028.469.055.718.083a1.711,1.711,0,0,0,.635-.11,2.626,2.626,0,0,1,.5-.11,2.425,2.425,0,0,1,2.429.718,2.733,2.733,0,0,1,.607,2.125,3.248,3.248,0,0,1-.662,1.159,3.444,3.444,0,0,0-.524.828,7.1,7.1,0,0,0-.3,1.325c-.055.359-.11.718-.193,1.049a14.365,14.365,0,0,1-.69,2.1,3.331,3.331,0,0,1-.69,1.021,3.619,3.619,0,0,0-.552.773,4.015,4.015,0,0,0-.248.69,2.961,2.961,0,0,1-.5,1.132,2.442,2.442,0,0,1-.69.5l-.414.248c-.331.276-.718.69-.718,1.049a.568.568,0,0,0,.248.442,1.008,1.008,0,0,0,.386.193,1.366,1.366,0,0,1,.635.386.776.776,0,0,1,.138.607,1.153,1.153,0,0,1-.552.745,3.187,3.187,0,0,1-1.1.331h-.028a3.453,3.453,0,0,0-.994.414,1.033,1.033,0,0,0-.635,1.049.252.252,0,0,0,.083.193,1.254,1.254,0,0,0,.938-.055,4.591,4.591,0,0,0,.745-.359,4.776,4.776,0,0,1,.856-.386,2.906,2.906,0,0,1,2.291.662l.11.083a1.541,1.541,0,0,1,.221.138,5.113,5.113,0,0,1,1.546,1.214,2.935,2.935,0,0,0,.248.3c.442.58.856,1.1,1.325,1.628.138.166.3.3.442.469a3.451,3.451,0,0,1,1.27,2.153c0,.11.028.221.028.3.028.276.055.552.055.828v.248a.905.905,0,0,0,0,.276,1.583,1.583,0,0,0,.11.193.919.919,0,0,1,.166.276,2.93,2.93,0,0,1,.138.635,1.934,1.934,0,0,0,.083.386,3.938,3.938,0,0,0,.248.745c.055.138.083.276.138.414a3.777,3.777,0,0,0,.442.883l.083.138a1.652,1.652,0,0,1,.193.911,2.525,2.525,0,0,0,.028.442,4.162,4.162,0,0,0,1.27,2.07,5.51,5.51,0,0,0,2.1.856,4.9,4.9,0,0,1,2.263,1.766l.028.028c.386.442.773.911,1.132,1.38.166.193.3.386.469.58a2.751,2.751,0,0,0,.276.3,4.8,4.8,0,0,1,.359.414,2.033,2.033,0,0,1,.221,1.187c-.028.248-.055.414-.083.58a1.25,1.25,0,0,0,.055.938,6.048,6.048,0,0,0,.662,1.187,3.991,3.991,0,0,0,.58.607,2.736,2.736,0,0,1,.8.966,1.566,1.566,0,0,1,.028.938,1.525,1.525,0,0,0-.028.607,5,5,0,0,0,.607,1.214c.083.138.166.3.248.442l.028.055a3.918,3.918,0,0,1,.718,2.622,1.783,1.783,0,0,1-.8.938c-.331.248-.635.469-.69.828a1.2,1.2,0,0,0,.718,1.159,1.018,1.018,0,0,0,1.27-.414l.166-.248a1.652,1.652,0,0,1,1.021-.828,5.853,5.853,0,0,1,1.214-.166.939.939,0,0,0,.276-.028,7.889,7.889,0,0,1,1.6.083c.221.028.442.055.635.083a4.437,4.437,0,0,1,1.849.607,5.817,5.817,0,0,1,2.07,1.987,6.238,6.238,0,0,1,.718,2.622,5.65,5.65,0,0,1-.386,1.49,4.722,4.722,0,0,0-.248.828,1.629,1.629,0,0,0-.055.386,2.93,2.93,0,0,1-.138.635,6.627,6.627,0,0,1-.3.635c-.083.166-.166.3-.248.469l-.166.414a17.241,17.241,0,0,1-.856,1.766c-.166.3-.386.607-.635.994a1.748,1.748,0,0,1-.911.718l-.083.055a1.27,1.27,0,0,0-.69.552,2.282,2.282,0,0,0-.193.359,5.973,5.973,0,0,1-.524.856c-.055.083-.138.138-.193.221-.248.276-.58.635-.524.856.028.11.193.221.331.276a2.047,2.047,0,0,1,.442.276c.11.083.193.138.3.221a2.42,2.42,0,0,0,1.27.166h.359a1.325,1.325,0,0,0,.331,0,1.136,1.136,0,0,0,.221-.083.921.921,0,0,1,.331-.138,1.2,1.2,0,0,1,.883.166c.055.028.138.055.193.083.414.166.635.276.69.856.193,1.463-.883,2.18-1.849,2.677a6.293,6.293,0,0,0-1.656,1.27,9.669,9.669,0,0,1-2.318,1.463c-.138.083-.3.138-.442.221s-.276.138-.414.221a4.293,4.293,0,0,1-2.235.718,4.672,4.672,0,0,1-1.352-.359,3.752,3.752,0,0,0-1.3-.331,5.651,5.651,0,0,0-1.159.193,6.313,6.313,0,0,1-.994.193.539.539,0,0,0-.193.028,2.918,2.918,0,0,0-1.1.221.993.993,0,0,0-.248.138,1.282,1.282,0,0,1-.966.166.939.939,0,0,0-.276-.028,4.546,4.546,0,0,1-.883-.166,2.434,2.434,0,0,1-.552-.248,2.787,2.787,0,0,0-.414-.193,2.474,2.474,0,0,0-2.208.221,2.045,2.045,0,0,0-.359.331,1.655,1.655,0,0,1-.524.442,6.74,6.74,0,0,1-.662.276c-.138.055-.248.083-.359.138a2.6,2.6,0,0,0-.607.331c-.221.138-.442.248-.662.359a3.16,3.16,0,0,1-.966.193c-.083,0-.166.028-.248.028a3.382,3.382,0,0,1-.524.055,6.527,6.527,0,0,1-2.318.028,4.251,4.251,0,0,1-1.132-.5,3.916,3.916,0,0,0-1.1-.469,4.069,4.069,0,0,0-2.042.3l-.248.083a3.758,3.758,0,0,0-1.656.828,2.407,2.407,0,0,0-.552.994,1.973,1.973,0,0,0-.083.69,3.518,3.518,0,0,1-.028.524,2.864,2.864,0,0,1-1.822,1.987,1.233,1.233,0,0,1-1.3-.469l-.028-.028a2.548,2.548,0,0,0-.828-.5,6.1,6.1,0,0,0-2.429-.524,5.265,5.265,0,0,0-2.07.442l-.166.083a.647.647,0,0,0-.276.138.592.592,0,0,0-.11.193,1.463,1.463,0,0,1-.166.276,2.367,2.367,0,0,1-.552.359,1.851,1.851,0,0,0-.386.248,2.451,2.451,0,0,0-.5.662l-.055.083a1.442,1.442,0,0,0-.193.414,2.321,2.321,0,0,1-.5.8C172.221,96.163,172,96.246,171.807,96.246Z" transform="translate(-163.5 -0.28)" fill="#3bacc7"/>
      </g>
      <g id="Group_875" data-name="Group 875" transform="translate(43.594 87.73)">
        <path id="Path_60758" data-name="Path 60758" d="M288.572,320.321a3.741,3.741,0,0,1-.552-.055c-.193-.028-.8-.138-.938-.635-.083-.276-.083-.911.276-1.1a3.683,3.683,0,0,1,1.9-.359c.524.028,1.3.414,1.408.911.055.221,0,.552-.524.828A3.27,3.27,0,0,1,288.572,320.321Zm-1.1-1.628Z" transform="translate(-287.037 -318.157)" fill="#3bacc7"/>
      </g>
      <g id="Group_876" data-name="Group 876" transform="translate(8.266 95.166)">
        <path id="Path_60759" data-name="Path 60759" d="M160.1,346.7h0a.929.929,0,0,1-1.021-.662.719.719,0,0,1,.083-.69.815.815,0,0,1,.662-.248c.745,0,1.076.331,1.187.635a.566.566,0,0,1-.028.607A1.208,1.208,0,0,1,160.1,346.7Z" transform="translate(-159.031 -345.1)" fill="#3bacc7"/>
      </g>
      <g id="Group_877" data-name="Group 877" transform="translate(21.043 46.985)">
        <path id="Path_60760" data-name="Path 60760" d="M206.036,174.576a.748.748,0,0,1-.552-.221c-.248-.248-.138-.966-.11-1.132a.738.738,0,0,1,.3-.386c.055-.055.11-.083.138-.138a3.919,3.919,0,0,0,.3-.5,2.058,2.058,0,0,1,.193-.331c.028-.055.083-.138.11-.193a1.961,1.961,0,0,1,.745-.828,1.348,1.348,0,0,1,.193-.083h0a1.621,1.621,0,0,1,1.435-.11,1.1,1.1,0,0,1,.331,1.27,4.472,4.472,0,0,1-1.849,2.18A2.785,2.785,0,0,1,206.036,174.576Z" transform="translate(-205.325 -170.526)" fill="#3bacc7"/>
      </g>
      <g id="Group_878" data-name="Group 878" transform="translate(17.962 33.226)">
        <path id="Path_60761" data-name="Path 60761" d="M195,123.658h-.138c-.469-.083-.552-.662-.607-1.049,0-.083-.028-.138-.028-.193a1.344,1.344,0,0,1,.276-1.38h0a1.452,1.452,0,0,1,1.076-.359.818.818,0,0,1,.607.386,1.833,1.833,0,0,1-.11,2.042A1.624,1.624,0,0,1,195,123.658Zm-.359-2.484Z" transform="translate(-194.162 -120.669)" fill="#3bacc7"/>
      </g>
      <g id="Group_879" data-name="Group 879" transform="translate(10.421 27.719)">
        <path id="Path_60762" data-name="Path 60762" d="M168.98,106.672a.72.72,0,0,1-.3-.083,1.08,1.08,0,0,1-.276-.221.731.731,0,0,0-.166-.138,1.283,1.283,0,0,0-.248-.083,1.345,1.345,0,0,1-.3-.11l-.055-.028a1.481,1.481,0,0,1-.58-.442,1.074,1.074,0,0,1-.193-.828,1.141,1.141,0,0,1,.276-.58c.028-.028.055-.083.083-.11a3.126,3.126,0,0,1,.276-.359.655.655,0,0,1,.524-.11h.193a3.016,3.016,0,0,0,.414-.221.968.968,0,0,1,.221-.138c.055-.028.138-.083.193-.11a8.414,8.414,0,0,0,.828-.524h0c.055-.028.083-.083.138-.11a2.084,2.084,0,0,0,.3-.386c.11-.138.193-.248.3-.386l.055-.055c.331-.386,1.1-1.27,1.711-.8.248.193.193.58.138.828v.083a5.51,5.51,0,0,1-.138.718,3.266,3.266,0,0,1-.635,1.325.969.969,0,0,1-.276.221.952.952,0,0,0-.248.221,2.783,2.783,0,0,0-.193.414,2.091,2.091,0,0,1-.248.5,4.48,4.48,0,0,1-1.132,1.242A1.212,1.212,0,0,1,168.98,106.672ZM170,102.7Z" transform="translate(-166.838 -100.714)" fill="#3bacc7"/>
      </g>
      <g id="Group_880" data-name="Group 880" transform="translate(5.471 9.976)">
        <path id="Path_60763" data-name="Path 60763" d="M150.033,39.868a.629.629,0,0,1-.3-.083.773.773,0,0,1-.442-.69.52.52,0,0,0-.055-.221.512.512,0,0,1-.055-.193,3.507,3.507,0,0,1-.221-.994.539.539,0,0,0-.028-.193,1.114,1.114,0,0,1,.138-.883.624.624,0,0,1,.359-.166h0a1.337,1.337,0,0,1,.469,0h.166c.414,0,1.38,0,1.684.8a1.578,1.578,0,0,1-.11.994,1.907,1.907,0,0,1-.083.221,1.463,1.463,0,0,1-.635.911l-.028.028A1.27,1.27,0,0,1,150.033,39.868Zm-.552-3.174Z" transform="translate(-148.902 -36.425)" fill="#3bacc7"/>
      </g>
      <g id="Group_881" data-name="Group 881" transform="translate(5.731 13.736)">
        <path id="Path_60764" data-name="Path 60764" d="M150.522,53.955a.6.6,0,0,1-.386-.138.789.789,0,0,1-.276-.828v-.938a4.477,4.477,0,0,1,.028-.635,2.028,2.028,0,0,1,.469-1.049.664.664,0,0,1,.662-.3.484.484,0,0,1,.359.331.974.974,0,0,1,.083.386,7.113,7.113,0,0,1-.193,1.877,1.385,1.385,0,0,0-.055.331c-.11.524-.276.828-.524.938C150.66,53.927,150.577,53.955,150.522,53.955Zm-.442-2.511Z" transform="translate(-149.845 -50.05)" fill="#3bacc7"/>
      </g>
      <g id="Group_882" data-name="Group 882" transform="translate(8.186 1.253)">
        <path id="Path_60765" data-name="Path 60765" d="M159.612,13.231a.556.556,0,0,1-.3-.083.941.941,0,0,1-.3-.69V12.4a.209.209,0,0,0-.028-.11,11.18,11.18,0,0,1-.193-1.932,2.526,2.526,0,0,0-.028-.442,2.881,2.881,0,0,1,.221-1.6A3.94,3.94,0,0,1,161.019,6.8a6.371,6.371,0,0,0,1.3-.718,2.917,2.917,0,0,0,.386-.414c.359-.442.828-.966,1.435-.828a.791.791,0,0,1,.552.552,2.216,2.216,0,0,1-.11,1.739,3.8,3.8,0,0,1-.607.718,2.755,2.755,0,0,0-.662.856,3.213,3.213,0,0,0-.166,1.049,2.5,2.5,0,0,1-.276,1.325,5.172,5.172,0,0,1-1.849,1.6,1.639,1.639,0,0,1-.221.11,3.277,3.277,0,0,1-1.021.442Z" transform="translate(-158.74 -4.819)" fill="#3bacc7"/>
      </g>
    </g>
    <line id="Line_92" data-name="Line 92" x1="22.962" transform="translate(21.895 23.192)" fill="none" stroke="#3eabc7" stroke-linecap="round" stroke-miterlimit="10" stroke-width="2"/>
    <line id="Line_93" data-name="Line 93" x1="10.405" transform="translate(21.537 48.39)" fill="none" stroke="#3eabc7" stroke-linecap="round" stroke-miterlimit="10" stroke-width="2"/>
    <line id="Line_94" data-name="Line 94" x1="22.99" transform="translate(25.4 74.222)" fill="none" stroke="#3eabc7" stroke-linecap="round" stroke-miterlimit="10" stroke-width="2"/>
    <path id="Path_43895_5_" d="M30,63.8v9.742l5.713-4.885Z" transform="translate(-20.634 -45.989)" fill="#3bacc7"/>
    <circle id="Ellipse_33748" data-name="Ellipse 33748" cx="10.018" cy="10.018" r="10.018" transform="translate(1.5 38.206)" fill="none" stroke="#3eabc7" stroke-miterlimit="10" stroke-width="2"/>
    <path id="Path_43895_4_" d="M30,155.8v9.742l5.713-4.885Z" transform="translate(-20.634 -112.599)" fill="#3bacc7"/>
    <circle id="Ellipse_33749" data-name="Ellipse 33749" cx="10.018" cy="10.018" r="10.018" transform="translate(5.115 63.873)" fill="none" stroke="#3eabc7" stroke-miterlimit="10" stroke-width="2"/>
    <path id="Path_43895_3_" d="M43.2,248.7v9.742l5.713-4.885Z" transform="translate(-30.191 -179.859)" fill="#3bacc7"/>
  </g>
</svg>
