<svg xmlns="http://www.w3.org/2000/svg" width="89.571" height="89.571" viewBox="0 0 89.571 89.571">
  <g id="Group_856" data-name="Group 856" transform="translate(-0.554 -0.6)">
    <rect id="Rectangle_1139" data-name="Rectangle 1139" width="44.626" height="44.626" transform="translate(0.9 44.639)" fill="#3bacc7"/>
    <line id="Line_90" data-name="Line 90" x1="5.788" transform="translate(45.339 33.716)" fill="none" stroke="#3bacc7" stroke-linecap="round" stroke-linejoin="round" stroke-miterlimit="10" stroke-width="2"/>
    <line id="Line_91" data-name="Line 91" x1="5.882" transform="translate(39.458 33.716)" fill="none" stroke="#3bacc7" stroke-linecap="round" stroke-linejoin="round" stroke-miterlimit="10" stroke-width="2"/>
    <path id="Path_56537" data-name="Path 56537" d="M64.1,78.346c4.108,4.855,14.564,3.174,14.564-4.2,0-7.469-8.776-7.469-8.776-7.469L75.77,57.9H64.1" transform="translate(-2.776 -0.897)" fill="none" stroke="#3bacc7" stroke-linecap="round" stroke-linejoin="round" stroke-miterlimit="10" stroke-width="2"/>
    <path id="Path_56538" data-name="Path 56538" d="M48.075,34.546V14.1L42.1,17.181" transform="translate(-2.736 -0.83)" fill="none" stroke="#3bacc7" stroke-linecap="round" stroke-linejoin="round" stroke-miterlimit="10" stroke-width="2"/>
    <path id="Path_56539" data-name="Path 56539" d="M1.6,45.386H45.386V89.171H1.6ZM22.046,1.6H65.832V45.386H22.046Zm23.34,43.786H89.171V89.171H45.386" transform="translate(-0.046 0)" fill="none" stroke="#3bacc7" stroke-linecap="round" stroke-linejoin="round" stroke-miterlimit="10" stroke-width="2"/>
    <path id="Path_56540" data-name="Path 56540" d="M16.093,81.113H30.938M16.093,71.4H30.938m.747-7a5.6,5.6,0,0,0-11.2,0V76.725c0,2.241-.747,4.481-4.481,4.481" transform="translate(-1.003 -3.088)" fill="none" stroke="#fff" stroke-linecap="round" stroke-linejoin="round" stroke-miterlimit="10" stroke-width="2"/>
  </g>
</svg>
