<svg xmlns="http://www.w3.org/2000/svg" width="96.9" height="93.736" viewBox="0 0 96.9 93.736">
  <g id="Income_Generating" data-name="Income Generating" transform="translate(1 1)">
    <path id="Path_52342" data-name="Path 52342" d="M80.083,35H95.9V69.8H80.083Zm0,28.786c-3.163,0-23.567,9.174-34.8,9.174-6.643,0-12.5-3.48-25.307-9.49C13.97,60.623,1,53.031,1,47.653s17.24,1.74,31.791,6.327" transform="translate(-1 18.776)" fill="none" stroke="#3bacc7" stroke-linecap="round" stroke-linejoin="round" stroke-miterlimit="10" stroke-width="2"/>
    <circle id="Ellipse_28539" data-name="Ellipse 28539" cx="12.653" cy="12.653" r="12.653" transform="translate(38.118)" stroke-width="2" stroke="#3bacc7" stroke-linecap="round" stroke-linejoin="round" stroke-miterlimit="10" fill="none"/>
    <circle id="Ellipse_28540" data-name="Ellipse 28540" cx="12.5" cy="12.5" r="12.5" transform="translate(16 28.736)" stroke-width="2" stroke="#3bacc7" stroke-linecap="round" stroke-linejoin="round" stroke-miterlimit="10" fill="none"/>
    <path id="Path_52343" data-name="Path 52343" d="M43.243,59.143H27.427a6.327,6.327,0,1,1,0-12.653h6.327c18.98,0,12.653-9.49,34.8-9.49" transform="translate(10.691 19.94)" fill="none" stroke="#3bacc7" stroke-linecap="round" stroke-linejoin="round" stroke-miterlimit="10" stroke-width="2"/>
  </g>
</svg>
