<svg xmlns="http://www.w3.org/2000/svg" width="84" height="84" viewBox="0 0 84 84">
  <g id="Group_931" data-name="Group 931" transform="translate(-1 -1)">
    <path id="Path_81668" data-name="Path 81668" d="M18,2V84H78.133V21.133L59,2Z" transform="translate(5.867 0)" fill="none" stroke="#3bacc7" stroke-linecap="round" stroke-linejoin="round" stroke-width="2"/>
    <path id="Path_81669" data-name="Path 81669" d="M56.067,2V21.133H75.2M26,34.8H64.267v41H26Zm13.667,0v41M26,48.467H64.267M26,62.133H64.267M42.4,15.667H36.933V10.2H31.467v5.467H26v5.467h5.467V26.6h5.467V21.133H42.4Z" transform="translate(8.8 0)" fill="none" stroke="#3bacc7" stroke-linecap="round" stroke-linejoin="round" stroke-width="2"/>
    <path id="Path_81670" data-name="Path 81670" d="M9.653,74.989,6.237,82.973a.137.137,0,0,1-.179.072.134.134,0,0,1-.072-.072L2.547,74.989A6.852,6.852,0,0,1,2,72.3V8.1a4.1,4.1,0,0,1,8.2,0V72.3A6.845,6.845,0,0,1,9.653,74.989Z" transform="translate(0 0.733)" fill="none" stroke="#3bacc7" stroke-linecap="round" stroke-linejoin="round" stroke-width="2"/>
    <path id="Path_81671" data-name="Path 81671" d="M2,9H12.933a2.733,2.733,0,0,1,2.733,2.733V30.867M2,67.767h8.2" transform="translate(0 2.567)" fill="none" stroke="#3bacc7" stroke-linecap="round" stroke-linejoin="round" stroke-width="2"/>
  </g>
</svg>
