<svg xmlns="http://www.w3.org/2000/svg" width="85.255" height="107.21" viewBox="0 0 85.255 107.21">
  <g id="Group_934" data-name="Group 934" transform="translate(-30.378 -25.507)">
    <circle id="Ellipse_41536" data-name="Ellipse 41536" cx="6.938" cy="6.938" r="6.938" transform="translate(66.067 73.439)" stroke-width="2" stroke="#3bacc7" stroke-linecap="round" stroke-linejoin="round" fill="none"/>
    <path id="Path_81676" data-name="Path 81676" d="M76.91,74.394H53.6a2.22,2.22,0,0,0-2.22,2.22V91.6a2.22,2.22,0,0,0,2.22,2.22h3.33v17.206a2.22,2.22,0,0,0,2.22,2.22H71.359a2.22,2.22,0,0,0,2.22-2.22V93.82h3.33a2.22,2.22,0,0,0,2.22-2.22V76.614A2.221,2.221,0,0,0,76.91,74.394Z" transform="translate(7.752 18.471)" fill="none" stroke="#3bacc7" stroke-linecap="round" stroke-linejoin="round" stroke-width="2"/>
    <circle id="Ellipse_41537" data-name="Ellipse 41537" cx="5.55" cy="5.55" r="5.55" transform="translate(36.928 54.013)" stroke-width="2" stroke="#3bacc7" stroke-linecap="round" stroke-linejoin="round" fill="none"/>
    <path id="Path_81677" data-name="Path 81677" d="M51.359,58.394H33.6a2.22,2.22,0,0,0-2.22,2.22h0V72.825a2.22,2.22,0,0,0,2.22,2.22h3.33V89.476a2.22,2.22,0,0,0,2.22,2.22h6.66a2.22,2.22,0,0,0,2.22-2.22V75.045h3.33a2.22,2.22,0,0,0,2.22-2.22h0V60.614a2.221,2.221,0,0,0-2.22-2.22Z" transform="translate(0 12.269)" fill="none" stroke="#3bacc7" stroke-linecap="round" stroke-linejoin="round" stroke-width="2"/>
    <circle id="Ellipse_41538" data-name="Ellipse 41538" cx="5.55" cy="5.55" r="5.55" transform="translate(97.981 54.013)" stroke-width="2" stroke="#3bacc7" stroke-linecap="round" stroke-linejoin="round" fill="none"/>
    <path id="Path_81678" data-name="Path 81678" d="M95.359,58.394H77.6a2.22,2.22,0,0,0-2.22,2.22V72.825a2.22,2.22,0,0,0,2.22,2.22h3.33V89.476a2.22,2.22,0,0,0,2.22,2.22h6.66a2.22,2.22,0,0,0,2.22-2.22V75.045h3.33a2.22,2.22,0,0,0,2.22-2.22V60.614A2.221,2.221,0,0,0,95.359,58.394Z" transform="translate(17.054 12.269)" fill="none" stroke="#3bacc7" stroke-linecap="round" stroke-linejoin="round" stroke-width="2"/>
    <circle id="Ellipse_41539" data-name="Ellipse 41539" cx="17.742" cy="17.742" r="17.742" transform="translate(55.618 27.664)" stroke-width="2" stroke="#3bacc7" stroke-linecap="round" stroke-linejoin="round" fill="none"/>
    <circle id="Ellipse_41540" data-name="Ellipse 41540" cx="10.8" cy="10.8" r="10.8" transform="translate(62.561 34.607)" stroke-width="2" stroke="#3bacc7" stroke-linecap="round" stroke-linejoin="round" fill="none"/>
    <circle id="Ellipse_41541" data-name="Ellipse 41541" cx="3.086" cy="3.086" r="3.086" transform="translate(70.275 42.321)" stroke-width="2" stroke="#3bacc7" stroke-linecap="round" stroke-linejoin="round" fill="none"/>
    <path id="Path_81679" data-name="Path 81679" d="M61.634,45.484,84.467,32.292l1.543-5.554m-1.543,5.554,5.709,1.851" transform="translate(11.727)" fill="none" stroke="#3bacc7" stroke-linecap="round" stroke-linejoin="round" stroke-width="2"/>
  </g>
</svg>
