<svg xmlns="http://www.w3.org/2000/svg" width="78.869" height="84.359" viewBox="0 0 78.869 84.359">
  <g id="Group_930" data-name="Group 930" transform="translate(-742 -3661)">
    <g id="Group_929" data-name="Group 929" transform="translate(743 3662)">
      <path id="Path_81665" data-name="Path 81665" d="M53.416,78.869s16.472,0,16.472-19.217h6.04a4.942,4.942,0,0,0,4.942-4.942V39.885a4.942,4.942,0,0,0-4.942-4.942h-6.04V29.453C69.888,14.292,58.968,2,43.807,2H41.062C25.9,2,14.981,14.292,14.981,29.453v5.491H8.942A4.942,4.942,0,0,0,4,39.885H4V54.71a4.942,4.942,0,0,0,4.942,4.942h3.294" transform="translate(-4 -2)" fill="none" stroke="#3bacc7" stroke-linecap="round" stroke-linejoin="round" stroke-width="2"/>
      <path id="Path_81666" data-name="Path 81666" d="M44.472,59.491A5.491,5.491,0,0,0,38.981,54H33.491a5.491,5.491,0,1,0,0,10.981h5.491A5.491,5.491,0,0,0,44.472,59.491Z" transform="translate(4.944 17.378)" fill="none" stroke="#3bacc7" stroke-linecap="round" stroke-linejoin="round" stroke-width="2"/>
      <path id="Path_81667" data-name="Path 81667" d="M48.2,24,39.963,43.217H59.18m-5.491-8.236V51.453M18,26.128A8.236,8.236,0,0,1,29.856,37.489L18,51.453H34.472" transform="translate(1.217 6.198)" fill="none" stroke="#3bacc7" stroke-linecap="round" stroke-linejoin="round" stroke-width="2"/>
    </g>
  </g>
</svg>
