<svg xmlns="http://www.w3.org/2000/svg" width="97.141" height="82.067" viewBox="0 0 97.141 82.067">
  <g id="Group_855" data-name="Group 855" transform="translate(0.1 0.1)">
    <path id="Path_56532" data-name="Path 56532" d="M18.1,31.914,37.872,41.7m0-27.6L18.1,23.888" transform="translate(-0.364 -0.28)" fill="none" stroke="#3bacc7" stroke-linecap="round" stroke-linejoin="round" stroke-miterlimit="10" stroke-width="2"/>
    <circle id="Ellipse_31133" data-name="Ellipse 31133" cx="8.907" cy="8.907" r="8.907" transform="translate(0.9 18.714)" stroke-width="2" stroke="#3bacc7" stroke-linecap="round" stroke-linejoin="round" stroke-miterlimit="10" fill="none"/>
    <circle id="Ellipse_31134" data-name="Ellipse 31134" cx="8.907" cy="8.907" r="8.907" transform="translate(36.529 0.9)" stroke-width="2" stroke="#3bacc7" stroke-linecap="round" stroke-linejoin="round" stroke-miterlimit="10" fill="none"/>
    <circle id="Ellipse_31135" data-name="Ellipse 31135" cx="8.907" cy="8.907" r="8.907" transform="translate(36.529 36.529)" stroke-width="2" stroke="#3bacc7" stroke-linecap="round" stroke-linejoin="round" stroke-miterlimit="10" fill="none"/>
    <g id="Group_854" data-name="Group 854" transform="translate(48.568 33.397)">
      <path id="Path_56533" data-name="Path 56533" d="M73.561,34.1C68.275,34.1,62.5,37.232,62.5,45.454v7.635c0,5.677,2.545,10.571,6.362,12.92m9.494,0c3.719-2.251,6.362-7.145,6.362-12.92V45.454c0-8.222-5.873-11.354-11.061-11.354" transform="translate(-49.873 -34.1)" fill="none" stroke="#3bacc7" stroke-linecap="round" stroke-linejoin="round" stroke-miterlimit="10" stroke-width="2"/>
      <path id="Path_56534" data-name="Path 56534" d="M84.534,46.846C68.678,46.846,68.678,35.1,68.678,35.1s1.077,13.312-6.362,13.312M84.143,72.393c-5.09-1.175-5.09-3.719-5.09-4.992V65.835M70.342,81.692H76.7M67.992,65.835V67.4c0,1.37,0,3.817-5.383,4.992m-.2-19.283S61.63,65.737,58.4,68.967c3.132,3.132,3.915,3.524,3.915,3.524" transform="translate(-49.786 -34.121)" fill="none" stroke="#3bacc7" stroke-linecap="round" stroke-linejoin="round" stroke-miterlimit="10" stroke-width="2"/>
      <path id="Path_56535" data-name="Path 56535" d="M85.083,53.5s.783,12.627,4.013,15.857c-3.132,3.132-4.8,3.328-4.8,3.328" transform="translate(-50.335 -34.511)" fill="none" stroke="#3bacc7" stroke-linecap="round" stroke-linejoin="round" stroke-miterlimit="10" stroke-width="2"/>
      <path id="Path_56536" data-name="Path 56536" d="M97.072,82.5a10.913,10.913,0,0,0-9.788-8.711c-1.077-.1-2.153-.294-3.23-.489l-7.537,9.2ZM58.8,73.789A9.838,9.838,0,0,0,49.6,82.5H70.155l-7.733-9.2c-1.272.2-2.447.392-3.622.489Z" transform="translate(-49.6 -34.931)" fill="none" stroke="#3bacc7" stroke-linecap="round" stroke-linejoin="round" stroke-miterlimit="10" stroke-width="2"/>
    </g>
  </g>
</svg>
