<svg xmlns="http://www.w3.org/2000/svg" width="132.08" height="106.097" viewBox="0 0 132.08 106.097">
  <g id="Group_951" data-name="Group 951" transform="translate(-1330.103 -3387.861)">
    <path id="Path_52314" data-name="Path 52314" d="M46.51,106.507c-19.615-6.321-34.21-33-34.21-59.589,0-10.6,3.254-20.452,7.251-28.818" transform="translate(1328.869 3386.193)" fill="none" stroke="#3bacc7" stroke-linecap="round" stroke-linejoin="round" stroke-miterlimit="10" stroke-width="2"/>
    <path id="Path_52315" data-name="Path 52315" d="M20.548,16.839S16.458,6.985,28.264,1.5C28.264,1.5,30.4,13.678,20.548,16.839Z" transform="translate(1328.337 3387.361)" fill="none" stroke="#3bacc7" stroke-linecap="round" stroke-linejoin="round" stroke-miterlimit="10" stroke-width="2"/>
    <path id="Path_52316" data-name="Path 52316" d="M12,18S7.261,25.623,8.191,29.527A24.569,24.569,0,0,0,12,37.243S16.557,27.11,12,18Z" transform="translate(1329.167 3386.2)" fill="none" stroke="#3bacc7" stroke-linecap="round" stroke-linejoin="round" stroke-miterlimit="10" stroke-width="2"/>
    <path id="Path_52317" data-name="Path 52317" d="M4.062,38.7s6.972,2.882,7.716,15.339c0,0-6.879-.93-7.716-5.764C2.947,42.326,4.062,38.7,4.062,38.7Z" transform="translate(1329.484 3384.743)" fill="none" stroke="#3bacc7" stroke-linecap="round" stroke-linejoin="round" stroke-miterlimit="10" stroke-width="2"/>
    <path id="Path_52318" data-name="Path 52318" d="M1.6,59.4s11.063,4.648,13.387,13.48c0,0-8.367-.93-11.155-3.811C.944,66.093,1.6,59.4,1.6,59.4Z" transform="translate(1329.627 3383.287)" fill="none" stroke="#3bacc7" stroke-linecap="round" stroke-linejoin="round" stroke-miterlimit="10" stroke-width="2"/>
    <path id="Path_52319" data-name="Path 52319" d="M3.6,80.1s16.826,1.394,17.291,9.575c0,0-4,2.7-7.716,1.952C6.668,90.233,3.6,80.1,3.6,80.1Z" transform="translate(1329.481 3381.83)" fill="none" stroke="#3bacc7" stroke-linecap="round" stroke-linejoin="round" stroke-miterlimit="10" stroke-width="2"/>
    <path id="Path_52320" data-name="Path 52320" d="M11.8,100.8s5.857,7.716,11.063,9.575,15.8-1.952,15.8-1.952-6.693-5.113-13.48-5.764S17.006,102.194,11.8,100.8Z" transform="translate(1328.904 3380.373)" fill="none" stroke="#3bacc7" stroke-linecap="round" stroke-linejoin="round" stroke-miterlimit="10" stroke-width="2"/>
    <path id="Path_52321" data-name="Path 52321" d="M93.7,106.507c19.615-6.321,34.117-33,34.117-59.589,0-10.6-3.254-20.452-7.251-28.818" transform="translate(1323.141 3386.193)" fill="none" stroke="#3bacc7" stroke-linecap="round" stroke-linejoin="round" stroke-miterlimit="10" stroke-width="2"/>
    <path id="Path_52322" data-name="Path 52322" d="M121.6,16.839s4.09-9.854-7.716-15.339C113.885,1.5,111.747,13.678,121.6,16.839Z" transform="translate(1321.734 3387.361)" fill="none" stroke="#3bacc7" stroke-linecap="round" stroke-linejoin="round" stroke-miterlimit="10" stroke-width="2"/>
    <path id="Path_52323" data-name="Path 52323" d="M130.347,18s4.741,7.623,3.811,11.527a24.568,24.568,0,0,1-3.811,7.716S125.792,27.11,130.347,18Z" transform="translate(1320.704 3386.2)" fill="none" stroke="#3bacc7" stroke-linecap="round" stroke-linejoin="round" stroke-miterlimit="10" stroke-width="2"/>
    <path id="Path_52324" data-name="Path 52324" d="M138.116,38.7s-6.972,2.882-7.716,15.339c0,0,6.879-.93,7.716-5.764C139.231,42.326,138.116,38.7,138.116,38.7Z" transform="translate(1320.558 3384.743)" fill="none" stroke="#3bacc7" stroke-linecap="round" stroke-linejoin="round" stroke-miterlimit="10" stroke-width="2"/>
    <path id="Path_52325" data-name="Path 52325" d="M140.287,59.4S129.224,64.048,126.9,72.88c0,0,8.367-.93,11.155-3.811C140.844,66.093,140.287,59.4,140.287,59.4Z" transform="translate(1320.804 3383.287)" fill="none" stroke="#3bacc7" stroke-linecap="round" stroke-linejoin="round" stroke-miterlimit="10" stroke-width="2"/>
    <path id="Path_52326" data-name="Path 52326" d="M137.891,80.1s-16.826,1.394-17.291,9.575c0,0,4,2.7,7.716,1.952C134.823,90.233,137.891,80.1,137.891,80.1Z" transform="translate(1321.247 3381.83)" fill="none" stroke="#3bacc7" stroke-linecap="round" stroke-linejoin="round" stroke-miterlimit="10" stroke-width="2"/>
    <path id="Path_52327" data-name="Path 52327" d="M128.966,100.8s-5.857,7.716-11.063,9.575-15.8-1.952-15.8-1.952,6.693-5.113,13.48-5.764S123.76,102.194,128.966,100.8Z" transform="translate(1322.549 3380.373)" fill="none" stroke="#3bacc7" stroke-linecap="round" stroke-linejoin="round" stroke-miterlimit="10" stroke-width="2"/>
    <g id="Group_944" data-name="Group 944" transform="translate(305 -6)">
      <path id="Path_77485" data-name="Path 77485" d="M36.391,15.488c-4.494,0-9.486,2.71-9.486,9.76v6.51c0,4.868,2.217,9.069,5.425,11.028m8.124,0c3.207-1.958,5.423-6.16,5.423-11.028v-6.51c0-7.05-4.993-9.76-9.485-9.76" transform="translate(1055.457 3406.375)" fill="none" stroke="#3bacc7" stroke-linecap="round" stroke-linejoin="round" stroke-width="2"/>
      <path id="Path_77486" data-name="Path 77486" d="M47.453,25.965C33.9,25.965,33.9,15.915,33.9,15.915s.959,11.407-5.425,11.407M47.1,47.9c-4.386-1.031-4.388-3.159-4.388-4.309V42.237M35.251,55.795h5.425M33.218,42.237v1.355c0,1.141,0,3.263-4.607,4.295m-.134-16.5s-.683,10.847-3.4,13.559c2.712,2.71,3.34,2.978,3.34,2.978" transform="translate(1053.885 3406.742)" fill="none" stroke="#3bacc7" stroke-linecap="round" stroke-linejoin="round" stroke-width="2"/>
      <path id="Path_77487" data-name="Path 77487" d="M37.436,24.228s.685,10.847,3.4,13.559c-2.71,2.71-4.131,2.857-4.131,2.857" transform="translate(1063.896 3413.904)" fill="none" stroke="#3bacc7" stroke-linecap="round" stroke-linejoin="round" stroke-width="2"/>
      <path id="Path_77488" data-name="Path 77488" d="M61.751,41A9.351,9.351,0,0,0,53.33,33.54a20.7,20.7,0,0,1-2.783-.436L44.126,41Zm-32.8-7.457A8.45,8.45,0,0,0,21.075,41H38.7l-6.64-7.908a23.443,23.443,0,0,1-3.116.45Z" transform="translate(1050.434 3421.539)" fill="none" stroke="#3bacc7" stroke-linecap="round" stroke-linejoin="round" stroke-width="2"/>
    </g>
  </g>
</svg>
