<svg xmlns="http://www.w3.org/2000/svg" width="128.582" height="76.221" viewBox="0 0 128.582 76.221">
  <g id="Group_871" data-name="Group 871" transform="translate(-0.981 -1)">
    <g id="Group_870" data-name="Group 870" transform="translate(1.99 21.818)">
      <g id="Group_867" data-name="Group 867" transform="translate(0 2.868)">
        <path id="Path_60736" data-name="Path 60736" d="M55.922,134.02a3.5,3.5,0,0,1-1.413-3.467V127.3m-13.055.813v2.44c0,1.027.385,2.525-1.755,3.852" transform="translate(-23.559 -96.353)" fill="none" stroke="#3eabc7" stroke-linecap="round" stroke-linejoin="round" stroke-miterlimit="10" stroke-width="2"/>
        <path id="Path_60737" data-name="Path 60737" d="M43.976,87.573A13.641,13.641,0,0,0,49.8,79.312c2.44,0,3.467-2.354,3.467-5.693,0-1.627,0-3.981-2.44-3.981V68.012m-23.584,0v1.627c-1.627,0-2.44,2.44-2.44,4.066,0,3.253,1.113,5.693,3.638,5.693h0a12.571,12.571,0,0,0,5.821,8.133M50.867,68.012V66.386C50.867,57.911,44.875,55,39.481,55s-12.2,2.868-12.2,11.386V68.1c9.759,0,10.572-6.506,17.121-6.506C50.4,61.506,50.867,68.012,50.867,68.012Z" transform="translate(-15.037 -55)" fill="none" stroke="#3eabc7" stroke-linecap="round" stroke-linejoin="round" stroke-miterlimit="10" stroke-width="2"/>
        <path id="Path_60738" data-name="Path 60738" d="M11.753,145.226c-10.273,1.584-9.759,8.9-9.759,8.9H26.435l-8.261-10.872A18.268,18.268,0,0,1,11.753,145.226Zm34.028,1.541a15.588,15.588,0,0,0-4.708-1.541h0c-3.638-.6-5.607-1.413-6.72-2.226l-7.919,11.129H38.377" transform="translate(-1.99 -105.333)" fill="none" stroke="#3eabc7" stroke-linecap="round" stroke-linejoin="round" stroke-miterlimit="10" stroke-width="2"/>
      </g>
      <g id="Group_868" data-name="Group 868" transform="translate(35.745)">
        <path id="Path_60739" data-name="Path 60739" d="M132.012,48.343c-5.992,0-12.712,3.638-12.712,13.055V70.13c0,6.506,2.953,12.113,7.234,14.767m10.872-.043c4.28-2.568,7.234-8.261,7.234-14.767V61.355C144.639,51.9,138,48.3,131.927,48.3" transform="translate(-104.833 -48.3)" fill="none" stroke="#3eabc7" stroke-linecap="round" stroke-linejoin="round" stroke-miterlimit="10" stroke-width="2"/>
        <path id="Path_60740" data-name="Path 60740" d="M138.719,64.34c-18.106,0-18.106-13.44-18.106-13.44s1.241,15.281-7.234,15.281m24.826,27.437c-5.821-1.413-5.821-4.195-5.821-5.778V86.084M122.369,104.19H129.6m-9.93-18.106v1.841c0,1.541,0,4.366-6.121,5.778m-.257-22.129s-.9,14.467-4.494,18.106c3.638,3.638,4.452,3.981,4.452,3.981" transform="translate(-98.827 -49.787)" fill="none" stroke="#3eabc7" stroke-linecap="round" stroke-linejoin="round" stroke-miterlimit="10" stroke-width="2"/>
        <path id="Path_60741" data-name="Path 60741" d="M177.327,99.2s.9,14.467,4.494,18.106c-3.638,3.638-5.522,3.852-5.522,3.852" transform="translate(-137.435 -77.413)" fill="none" stroke="#3eabc7" stroke-linecap="round" stroke-linejoin="round" stroke-miterlimit="10" stroke-width="2"/>
        <path id="Path_60742" data-name="Path 60742" d="M139.86,161.272a12.456,12.456,0,0,0-11.214-9.973,20.647,20.647,0,0,1-3.681-.6l-8.646,10.572ZM95.987,151.3A11.22,11.22,0,0,0,85.5,161.272h23.542l-8.86-10.572a27.5,27.5,0,0,1-4.195.6Z" transform="translate(-85.5 -106.87)" fill="none" stroke="#3eabc7" stroke-linecap="round" stroke-linejoin="round" stroke-miterlimit="10" stroke-width="2"/>
      </g>
      <g id="Group_869" data-name="Group 869" transform="translate(81.63 2.868)">
        <path id="Path_60743" data-name="Path 60743" d="M237.28,134.02a3.5,3.5,0,0,1-1.412-3.467V127.3m-13.012.813v2.44c0,1.027.385,2.525-1.755,3.852" transform="translate(-208.944 -96.353)" fill="none" stroke="#3eabc7" stroke-linecap="round" stroke-linejoin="round" stroke-miterlimit="10" stroke-width="2"/>
        <path id="Path_60744" data-name="Path 60744" d="M225.476,87.573a13.641,13.641,0,0,0,5.821-8.261c2.44,0,3.467-2.354,3.467-5.693,0-1.627,0-3.981-2.44-3.981V68.012m-23.584,0v1.627c-1.627,0-2.44,2.44-2.44,4.066,0,3.253,1.113,5.693,3.638,5.693h0a12.571,12.571,0,0,0,5.821,8.133m16.608-19.518V66.386c0-8.475-5.992-11.386-11.386-11.386s-12.2,2.868-12.2,11.386V68.1c9.759,0,10.572-6.506,17.121-6.506C231.9,61.506,232.367,68.012,232.367,68.012Z" transform="translate(-200.479 -55)" fill="none" stroke="#3eabc7" stroke-linecap="round" stroke-linejoin="round" stroke-miterlimit="10" stroke-width="2"/>
        <path id="Path_60745" data-name="Path 60745" d="M200.7,154.129h12.413l-8.261-10.872a18.153,18.153,0,0,1-6.335,1.926,15.755,15.755,0,0,0-5.821,2.055m35.141-2.012c-3.638-.6-5.607-1.413-6.72-2.226L213.2,154.214h24.441c-.086-.086-.086-7.4-9.8-8.989Z" transform="translate(-192.7 -105.333)" fill="none" stroke="#3eabc7" stroke-linecap="round" stroke-linejoin="round" stroke-miterlimit="10" stroke-width="2"/>
      </g>
    </g>
    <circle id="Ellipse_33736" data-name="Ellipse 33736" cx="11.3" cy="11.3" r="11.3" transform="translate(32.77 2)" stroke-width="2" stroke="#3eabc7" stroke-linecap="round" stroke-linejoin="round" stroke-miterlimit="10" fill="none"/>
    <circle id="Ellipse_33737" data-name="Ellipse 33737" cx="0.77" cy="0.77" r="0.77" transform="translate(39.533 10.261)" stroke-width="2" stroke="#3eabc7" stroke-linecap="round" stroke-linejoin="round" stroke-miterlimit="10" fill="none"/>
    <circle id="Ellipse_33738" data-name="Ellipse 33738" cx="0.77" cy="0.77" r="0.77" transform="translate(47.066 10.261)" stroke-width="2" stroke="#3eabc7" stroke-linecap="round" stroke-linejoin="round" stroke-miterlimit="10" fill="none"/>
    <path id="Path_60746" data-name="Path 60746" d="M84.5,35.4a6.976,6.976,0,0,0,13.526,0Z" transform="translate(-47.193 -19.104)" fill="none" stroke="#3eabc7" stroke-linecap="round" stroke-linejoin="round" stroke-miterlimit="10" stroke-width="2"/>
    <path id="Path_60747" data-name="Path 60747" d="M190,23.08h.642c1.241,0,3.767,1.241,5.008,1.241h5.008a1.241,1.241,0,0,0,0-2.483h.642a1.241,1.241,0,1,0,0-2.483h.642a1.241,1.241,0,0,0,0-2.483m-.086-.043h.642a1.241,1.241,0,0,0,0-2.483h-6.249a24.766,24.766,0,0,0,.642-5.607,1.241,1.241,0,1,0-2.483,0s-.556,6.206-4.366,6.806" transform="translate(-107.536 -3.146)" fill="none" stroke="#3eabc7" stroke-linecap="round" stroke-linejoin="round" stroke-miterlimit="10" stroke-width="2"/>
    <path id="Path_60748" data-name="Path 60748" d="M178.3,34.115l5.008-.642V23.5H178.3Z" transform="translate(-100.844 -12.297)" fill="none" stroke="#3eabc7" stroke-linecap="round" stroke-linejoin="round" stroke-miterlimit="10" stroke-width="2"/>
    <circle id="Ellipse_33739" data-name="Ellipse 33739" cx="0.3" cy="0.3" r="0.3" transform="translate(79.639 18.394)" stroke-width="2" stroke="#3eabc7" stroke-linecap="round" stroke-linejoin="round" stroke-miterlimit="10" fill="none"/>
  </g>
</svg>
