<svg id="Group_859" data-name="Group 859" xmlns="http://www.w3.org/2000/svg" width="69.144" height="60.191" viewBox="0 0 69.144 60.191">
  <circle id="Ellipse_31137" data-name="Ellipse 31137" cx="1" cy="1" r="1" transform="translate(6.729 6.832)" stroke-width="2" stroke="#3bacc7" stroke-linecap="round" stroke-linejoin="round" fill="none"/>
  <circle id="Ellipse_31138" data-name="Ellipse 31138" cx="1" cy="1" r="1" transform="translate(14.729 6.832)" stroke-width="2" stroke="#3bacc7" stroke-linecap="round" stroke-linejoin="round" fill="none"/>
  <circle id="Ellipse_31139" data-name="Ellipse 31139" cx="1" cy="1" r="1" transform="translate(21.729 6.832)" stroke-width="2" stroke="#3bacc7" stroke-linecap="round" stroke-linejoin="round" fill="none"/>
  <path id="Path_56553" data-name="Path 56553" d="M1,1H59.191V14.429H1ZM59.191,31.215V14.429M1,14.429v35.81H35.691" fill="none" stroke="#3bacc7" stroke-linecap="round" stroke-linejoin="round" stroke-width="2"/>
  <circle id="Ellipse_31140" data-name="Ellipse 31140" cx="5.5" cy="5.5" r="5.5" transform="translate(45.729 36.832)" stroke-width="2" stroke="#3bacc7" stroke-linecap="round" stroke-linejoin="round" fill="none"/>
  <path id="Path_56554" data-name="Path 56554" d="M64.608,44.262l-3.8-2.238a16.7,16.7,0,0,0,.224-2.35A19.979,19.979,0,0,0,60.8,37.1l3.469-1.791L59.8,27.588,56.327,29.6c-1.343-1.119-2.91-2.126-4.029-2.126V23H43.345v4.476a9.2,9.2,0,0,0-4.364,2.014l-3.469-2.014L31.036,35.31l3.357,1.9a19.978,19.978,0,0,0-.224,2.574,16.7,16.7,0,0,0,.224,2.35L30.7,44.262l4.476,7.722,3.693-2.014A9.267,9.267,0,0,0,43.345,52.1v4.476H52.3V52.1c1.119,0,2.8-1.119,4.141-2.238L60.131,52.1Z" transform="translate(3.536 2.619)" fill="none" stroke="#3bacc7" stroke-linecap="round" stroke-linejoin="round" stroke-width="2"/>
</svg>
