<svg xmlns="http://www.w3.org/2000/svg" width="117.391" height="71.715" viewBox="0 0 117.391 71.715">
  <g id="Group_852" data-name="Group 852" transform="translate(-1 -1)">
    <path id="Path_56522" data-name="Path 56522" d="M27.448,78.62a.909.909,0,0,1-.893.893H13.093a.909.909,0,0,1-.893-.893V67.493a.909.909,0,0,1,.893-.893H26.555a.909.909,0,0,1,.893.893V78.62Zm7.075-10.852V78.345l-7.006-2.953V70.721Z" transform="translate(-3.194 -20.23)" fill="none" stroke="#3bacc7" stroke-linecap="round" stroke-linejoin="round" stroke-miterlimit="10" stroke-width="2"/>
    <path id="Path_56523" data-name="Path 56523" d="M7.838,50.4H31.26A5.833,5.833,0,0,1,37.1,56.238V79.66A5.833,5.833,0,0,1,31.26,85.5H7.838A5.79,5.79,0,0,1,2,79.66V56.238A5.833,5.833,0,0,1,7.838,50.4Z" transform="translate(0 -15.157)" fill="none" stroke="#3bacc7" stroke-linecap="round" stroke-linejoin="round" stroke-miterlimit="10" stroke-width="2"/>
    <path id="Path_56524" data-name="Path 56524" d="M137.474,53.5H123.737a13.737,13.737,0,0,0,0,27.474h1.374v6.868l8.242-6.868h4.121a13.737,13.737,0,0,0,0-27.474Z" transform="translate(-33.82 -16.127)" fill="none" stroke="#3bacc7" stroke-linecap="round" stroke-linejoin="round" stroke-miterlimit="10" stroke-width="2"/>
    <circle id="Ellipse_31130" data-name="Ellipse 31130" cx="1.374" cy="1.374" r="1.374" transform="translate(87.169 49.736)" stroke-width="2" stroke="#3bacc7" stroke-linecap="round" stroke-linejoin="round" stroke-miterlimit="10" fill="none"/>
    <circle id="Ellipse_31131" data-name="Ellipse 31131" cx="1.374" cy="1.374" r="1.374" transform="translate(95.411 49.736)" stroke-width="2" stroke="#3bacc7" stroke-linecap="round" stroke-linejoin="round" stroke-miterlimit="10" fill="none"/>
    <circle id="Ellipse_31132" data-name="Ellipse 31132" cx="1.374" cy="1.374" r="1.374" transform="translate(103.654 49.736)" stroke-width="2" stroke="#3bacc7" stroke-linecap="round" stroke-linejoin="round" stroke-miterlimit="10" fill="none"/>
    <path id="Path_56525" data-name="Path 56525" d="M87.475,64.7c-1.923-1.442-1.648-3.022-1.648-4.19V56.6m-15.8.962v2.953c0,1.236.412,3.022-2.129,4.6" transform="translate(-20.637 -17.098)" fill="none" stroke="#3bacc7" stroke-linecap="round" stroke-linejoin="round" stroke-miterlimit="10" stroke-width="2"/>
    <path id="Path_56526" data-name="Path 56526" d="M79.915,41.425a16.8,16.8,0,0,0,7.075-9.959c2.953-.069,4.19-2.885,4.19-6.868,0-1.992,0-4.877-2.953-4.877V17.8m-28.573,0v1.992c-1.992,0-2.953,2.953-2.953,4.945,0,3.984,1.374,6.937,4.4,6.937h0a15.327,15.327,0,0,0,7.075,9.891M88.226,17.8V15.806C88.226,5.572,80.946,2,74.421,2S59.653,5.434,59.653,15.737V17.8c11.814,0,12.844-7.9,20.674-7.9C87.677,9.9,88.226,17.8,88.226,17.8Z" transform="translate(-17.129 0)" fill="none" stroke="#3bacc7" stroke-linecap="round" stroke-linejoin="round" stroke-miterlimit="10" stroke-width="2"/>
    <path id="Path_56527" data-name="Path 56527" d="M53.4,81.9H73.387L63.359,68.781c-1.442.893-3.778,1.648-7.693,2.267a21.985,21.985,0,0,0-2.267.481m38.738-.275c-.343-.069-.618-.137-.962-.206h0c-4.4-.756-6.8-1.717-8.174-2.747L73.387,81.9H96.465" transform="translate(-16.096 -20.762)" fill="none" stroke="#3bacc7" stroke-linecap="round" stroke-linejoin="round" stroke-miterlimit="10" stroke-width="2"/>
  </g>
</svg>
