<svg xmlns="http://www.w3.org/2000/svg" width="78.742" height="112.838" viewBox="0 0 78.742 112.838">
  <g id="Group_933" data-name="Group 933" transform="translate(-22.807 -22.73)">
    <g id="Group_932" data-name="Group 932" transform="translate(23.807 60.383)">
      <circle id="Ellipse_41532" data-name="Ellipse 41532" cx="7.674" cy="7.674" r="7.674" transform="translate(53.72)" stroke-width="2" stroke="#3bacc7" stroke-linecap="round" stroke-linejoin="round" fill="none"/>
      <path id="Path_81672" data-name="Path 81672" d="M67.481,96.519v16.628a3.837,3.837,0,0,0,3.837,3.837h7.674a3.837,3.837,0,0,0,3.837-3.837V96.519h3.837A3.837,3.837,0,0,0,90.5,92.682V74.775a3.837,3.837,0,0,0-3.837-3.837H63.644a3.837,3.837,0,0,0-3.837,3.837v1.279" transform="translate(-13.762 -47.915)" fill="none" stroke="#3bacc7" stroke-linecap="round" stroke-linejoin="round" stroke-width="2"/>
      <circle id="Ellipse_41533" data-name="Ellipse 41533" cx="7.674" cy="7.674" r="7.674" transform="translate(7.675)" stroke-width="2" stroke="#3bacc7" stroke-linecap="round" stroke-linejoin="round" fill="none"/>
      <path id="Path_81673" data-name="Path 81673" d="M54.5,74.775a3.837,3.837,0,0,0-3.837-3.837H27.644a3.837,3.837,0,0,0-3.837,3.837V92.682a3.837,3.837,0,0,0,3.837,3.837h3.837v16.628a3.837,3.837,0,0,0,3.837,3.837h7.674a3.837,3.837,0,0,0,3.837-3.837V96.519" transform="translate(-23.807 -47.915)" fill="none" stroke="#3bacc7" stroke-linecap="round" stroke-linejoin="round" stroke-width="2"/>
      <circle id="Ellipse_41534" data-name="Ellipse 41534" cx="7.674" cy="7.674" r="7.674" transform="translate(30.697 5.116)" stroke-width="2" stroke="#3bacc7" stroke-linecap="round" stroke-linejoin="round" fill="none"/>
      <path id="Path_81674" data-name="Path 81674" d="M68.667,74.938H45.644a3.837,3.837,0,0,0-3.837,3.837V96.682a3.837,3.837,0,0,0,3.837,3.837h3.837v16.628a3.837,3.837,0,0,0,3.837,3.837h7.674a3.837,3.837,0,0,0,3.837-3.837h0V100.519h3.837A3.837,3.837,0,0,0,72.5,96.682V78.775A3.837,3.837,0,0,0,68.667,74.938Z" transform="translate(-18.784 -46.799)" fill="none" stroke="#3bacc7" stroke-linecap="round" stroke-linejoin="round" stroke-width="2"/>
    </g>
    <ellipse id="Ellipse_41535" data-name="Ellipse 41535" cx="8.16" cy="8.16" rx="8.16" ry="8.16" transform="translate(54.018 33.056)" fill="none" stroke="#3bacc7" stroke-linecap="round" stroke-linejoin="round" stroke-width="2"/>
    <path id="Path_81675" data-name="Path 81675" d="M75.282,40.829a1.825,1.825,0,0,1-1.736-1.317,14.423,14.423,0,0,0-1.093-2.633,1.829,1.829,0,0,1,.295-2.163,1.806,1.806,0,0,0,0-2.551l-1.57-1.573a1.807,1.807,0,0,0-2.551,0,1.822,1.822,0,0,1-2.162.295,14.483,14.483,0,0,0-2.634-1.093,1.822,1.822,0,0,1-1.317-1.734,1.808,1.808,0,0,0-1.8-1.8H58.487a1.806,1.806,0,0,0-1.8,1.8A1.825,1.825,0,0,1,55.368,29.8a14.482,14.482,0,0,0-2.634,1.093,1.824,1.824,0,0,1-2.163-.295,1.807,1.807,0,0,0-2.551,0l-1.57,1.574a1.806,1.806,0,0,0,0,2.551,1.827,1.827,0,0,1,.295,2.162,14.481,14.481,0,0,0-1.093,2.634,1.827,1.827,0,0,1-1.736,1.314,1.807,1.807,0,0,0-1.8,1.8v2.222a1.807,1.807,0,0,0,1.8,1.8,1.823,1.823,0,0,1,1.734,1.317,14.467,14.467,0,0,0,1.093,2.633,1.824,1.824,0,0,1-.295,2.163,1.806,1.806,0,0,0,0,2.551l1.574,1.573a1.807,1.807,0,0,0,2.551,0,1.824,1.824,0,0,1,2.162-.293,14.476,14.476,0,0,0,2.634,1.091,1.825,1.825,0,0,1,1.314,1.734,1.807,1.807,0,0,0,1.8,1.8h2.222a1.808,1.808,0,0,0,1.8-1.8,1.822,1.822,0,0,1,1.316-1.736A14.482,14.482,0,0,0,66.464,56.6a1.822,1.822,0,0,1,2.162.295,1.807,1.807,0,0,0,2.551,0l1.574-1.571a1.806,1.806,0,0,0,0-2.551,1.822,1.822,0,0,1-.295-2.162,14.481,14.481,0,0,0,1.093-2.634,1.823,1.823,0,0,1,1.733-1.317,1.806,1.806,0,0,0,1.8-1.8V42.632A1.806,1.806,0,0,0,75.282,40.829Z" transform="translate(2.58 -2.527)" fill="none" stroke="#3bacc7" stroke-linecap="round" stroke-linejoin="round" stroke-width="2"/>
  </g>
</svg>
