<svg xmlns="http://www.w3.org/2000/svg" width="93.517" height="71.139" viewBox="0 0 93.517 71.139">
  <g id="Group_928" data-name="Group 928" transform="translate(-484 -179)">
    <path id="Path_81661" data-name="Path 81661" d="M531.092,235.311V180H485v57.616a11.523,11.523,0,0,0,11.523,11.523" transform="translate(0)" fill="none" stroke="#3bacc7" stroke-linecap="round" stroke-linejoin="round" stroke-width="2"/>
    <path id="Path_81662" data-name="Path 81662" d="M506.523,228v2.3A11.523,11.523,0,0,1,495,241.828h41.483A11.523,11.523,0,0,0,548.006,230.3V228Z" transform="translate(1.523 7.311)" fill="none" stroke="#3bacc7" stroke-linecap="round" stroke-linejoin="round" stroke-width="2"/>
    <path id="Path_81663" data-name="Path 81663" d="M495,190h23.046M495,201.523h23.046M495,213.046h23.046M495,224.569h23.046" transform="translate(1.523 1.523)" fill="none" stroke="#3bacc7" stroke-linecap="round" stroke-linejoin="round" stroke-width="2"/>
    <g id="Group_927" data-name="Group 927" transform="translate(540.784 200.868)">
      <path id="Path_81664" data-name="Path 81664" d="M552.767,217.466l13.014,13.014" transform="translate(-530.463 -195.162)" fill="none" stroke="#3bacc7" stroke-linecap="round" stroke-linejoin="round" stroke-width="2"/>
      <circle id="Ellipse_41531" data-name="Ellipse 41531" cx="13.053" cy="13.053" r="13.053" stroke-width="2" stroke="#3bacc7" stroke-linecap="round" stroke-linejoin="round" fill="none"/>
    </g>
  </g>
</svg>
