<svg xmlns="http://www.w3.org/2000/svg" width="60.182" height="75.414" viewBox="0 0 60.182 75.414">
  <g id="Group_939" data-name="Group 939" transform="translate(-1901.113 -725.649)">
    <g id="Group_938" data-name="Group 938">
      <path id="Path_85848" data-name="Path 85848" d="M1936.116,727.063a7.405,7.405,0,0,1,0,10.435,7.312,7.312,0,0,1-10.379,0l-6.919-6.957a9.751,9.751,0,0,0-13.839,0,9.874,9.874,0,0,0,0,13.913l8.781,8.828,5,5a4.751,4.751,0,0,0,0,6.691,4.689,4.689,0,0,0,6.655,0,4.749,4.749,0,0,0,0-6.691,4.679,4.679,0,0,0-3.324-1.385m-6.522-6.557,4.3-4.323h13.31L1960.3,773.3l-26.62,26.761-27.116-27.285V759.4l6.655-6.69" fill="rgba(0,0,0,0)" stroke="#3bacc7" stroke-linecap="round" stroke-linejoin="round" stroke-width="2"/>
    </g>
    <path id="Path_85849" data-name="Path 85849" d="M1927.5,771.7l8.008,8.008.681-8.712Z" fill="#3bacc7"/>
  </g>
</svg>
