<svg xmlns="http://www.w3.org/2000/svg" width="165.254" height="45.079" viewBox="0 0 165.254 45.079">
  <g id="Amsource_Logo" data-name="Amsource Logo" transform="translate(0)">
    <path id="Path_1" data-name="Path 1" d="M92.275,48.127a23.121,23.121,0,0,1,2.364-10.979A35.276,35.276,0,0,1,96.559,33.7c.327-.523.665-1.039,1.009-1.551.447-.667,1.189-1.386,1.151-2.255a.943.943,0,0,1,.9-.174c.567.251.872,1.316.96,2.129-.059,6.033-2.277,13.857-8.305,16.275M103.183,30.04c-.143-.143-.349-.209-.479-.369a6.932,6.932,0,0,0-.941-.961,4.978,4.978,0,0,0-2.748-1.174,5.164,5.164,0,0,0-1.363.071,3.156,3.156,0,0,0-1.955-.381,2.639,2.639,0,0,0-2.02,1.36,42.759,42.759,0,0,0-2.3,3.614,29,29,0,0,0-2.56,5.983,26.4,26.4,0,0,0-1.067,6.732,4.453,4.453,0,0,0,1.541,3.813c.181.158.185.5.351.7a6.254,6.254,0,0,0,1.889,1.425,4.273,4.273,0,0,0,2.242.667,7.266,7.266,0,0,0,1.676-.366,5.375,5.375,0,0,0,2.51-1.778l.037-.049a.251.251,0,0,0-.074-.335,17.217,17.217,0,0,0,1.6-1.876,20,20,0,0,0,3.457-6.344,19.118,19.118,0,0,0,.516-9.895,1.842,1.842,0,0,0-.277-.795C103.207,30.065,103.195,30.052,103.183,30.04ZM118.4,53.7c.24,1.165-1.271.886-1.872.459a3.782,3.782,0,0,1-1.119-1.43c-1.143-2.268-1.253-4.892-1.331-7.426a14.577,14.577,0,0,1-2.1,2.246,4.936,4.936,0,0,1-2.8,1.179,4.753,4.753,0,0,1-4.344-3.1,9.8,9.8,0,0,1-.244-5.574,45.256,45.256,0,0,1,3.936-10.516,2.892,2.892,0,0,1,.919-1.271,2.481,2.481,0,0,1,1.875-.166,2.989,2.989,0,0,1,2.122,1.351c.514,1.02-.027,2.227-.547,3.244-2.037,3.981-3.87,8.174-4.25,12.622a16.132,16.132,0,0,0,6.471-6.981c1.513-2.838,2.532-5.9,3.839-8.841a2.309,2.309,0,0,1,.962-1.242,2.358,2.358,0,0,1,1.91.23,2.9,2.9,0,0,1,1.721,1.4,2.835,2.835,0,0,1-.182,1.884c-1.207,3.5-2.848,6.836-4.01,10.348a21.6,21.6,0,0,0-1.2,9.98c.082.531.131,1.075.239,1.6M68.755,50.837a1.081,1.081,0,0,1-.01-.308,1.058,1.058,0,0,0-.056-.512,31.233,31.233,0,0,1,.281-4.2c.2-1.529.48-3.046.82-4.549.421-1.858.937-3.721,1.518-5.543q.734-2.3,1.611-4.552c.489-1.262,1.029-2.553,1.61-3.795.281-.6.57-1.2.884-1.787a8.878,8.878,0,0,0,.875-1.76,2.148,2.148,0,0,0-.684-2.319,2.248,2.248,0,0,0-1.261-.386,3.327,3.327,0,0,0-2.976,1.6q-.738,1.286-1.449,2.586C67.735,29.3,65.151,33.09,62.69,36.916c-.887,1.379-1.771,2.76-2.638,4.152-.209.335-.536.928-.593.956s-.109-.006-.092-.175a29.214,29.214,0,0,1,3.375-11.091c.213-.377.667-.871.693-1.307a1.324,1.324,0,0,0-.023-.281c-.279-1.8-2.916-2.608-4.334-1.643-.887.6-3.6,4.467-4.28,5.532-1.138,1.772-2.9,4.986-2.976,5.1s-.106.058-.04-.084c.227-.491.409-1.015.619-1.5q.786-1.84,1.57-3.682c.491-1.152.947-2.332,1.51-3.451a1.755,1.755,0,0,0,.235-.888c-.051-.753-.879-1.31-1.486-1.627a3.2,3.2,0,0,0-3.349.027A3.9,3.9,0,0,0,49.838,28.8a88.31,88.31,0,0,0-3.5,10.75.636.636,0,0,0-.226.058L46,39.668v.123a30.853,30.853,0,0,1-.628,5.16,24.062,24.062,0,0,0-.386,5.2,1.473,1.473,0,0,0,.356.984,2.758,2.758,0,0,0,2.166.5,2.081,2.081,0,0,0,1.565-1.27c.624-1.432,1.194-2.908,1.716-4.38a46.706,46.706,0,0,1,3.73-7.675s1.059-1.712,1.111-1.757c-.019.113-.038.228-.057.347-.437,2.644-1.037,6.265.749,8.094a4.164,4.164,0,0,0,4.119.947,2.306,2.306,0,0,0,.867-.8c1.917-2.717,3.1-5.872,5.049-8.559a1.635,1.635,0,0,0-.082.53q-.045.3-.085.6a41.063,41.063,0,0,0-.375,9.5c.191,1.905.772,5.363,3.3,5.363.02,0,.205,0,.29-.262s-.193-.606-.373-.832a.959.959,0,0,1-.283-.649M39.179,30.964c.6-1.718,2.374-5.592,2.889-7.1A116.951,116.951,0,0,0,30.851,36.947l5.508-.241a1.243,1.243,0,0,0,.76-.2,1.219,1.219,0,0,0,.322-.6M47.531,23.15a36.14,36.14,0,0,0-2.854,6.6c-.433,1.294-1.7,5.292-1.924,5.96-.2.617-.508,1.208-.652,1.842a5.973,5.973,0,0,1,2.913,2.784A3.036,3.036,0,0,1,44.93,43a1.41,1.41,0,0,1-.6.423c-.845.338-1.386-.152-2.093-.528a4.926,4.926,0,0,0-1.342-.55c0,.014-1.066,5.125-1.228,7.586-.146,2.21-.312,4.711,1,6.643a3.136,3.136,0,0,1,.6,1.262c.158,1.085-1.048,1.678-1.968,1.748a3.7,3.7,0,0,1-3.283-1.61,10.567,10.567,0,0,1-1.375-6.2,72.469,72.469,0,0,1,1.3-10,44.884,44.884,0,0,0-8.452.437,40.889,40.889,0,0,0-3.189,5.861A19.67,19.67,0,0,0,23.01,52.6a7.6,7.6,0,0,1-.254,1.786A1.767,1.767,0,0,1,21.079,55.4a3.628,3.628,0,0,1-3.3-2.28,3.558,3.558,0,0,1,.325-2.357c.356-1.135.711-2.273,1.153-3.38a38.379,38.379,0,0,1,1.965-3.957c-1.917.374-4.632,2.181-5.93,3.08-1.155.8-2.769,1.788-3.283,3.16a1.875,1.875,0,0,1-1.162,1.218c-1.133.233-2.162-1.133-2.539-2.015a3.093,3.093,0,0,1,.139-3.062,41.172,41.172,0,0,1,5.42-4.221c1.747-1.173,5.747-2.459,9.155-3.219a3.625,3.625,0,0,0,1.884-.857,11.34,11.34,0,0,0,1.414-1.746c.84-1.166,1.565-2.411,2.443-3.552a98.1,98.1,0,0,1,8.949-10.03,27.519,27.519,0,0,1,7.385-5.611,3.381,3.381,0,0,0,.323-.458,3.051,3.051,0,0,1,1.141-1.391,2.368,2.368,0,0,1,1.968,0c1.005.395,2.241,1.2,2.405,2.349.121.845-.938,2.129-.938,2.129M75.128,51.289l0-.011h.04l-.036.011M87.573,28.908c1.223-.478,2.478-.929,3.674-1.468.145-.065.579-.208.64-.362.053-.136-.106-.48-.154-.611a3.7,3.7,0,0,0-1.744-2,4.162,4.162,0,0,0-3.443,0,32.541,32.541,0,0,0-8.142,3.59,14.271,14.271,0,0,0-3.185,2.582,4.638,4.638,0,0,0-.192,4.976c.969,1.761,2.818,2.791,4.517,3.742a15.834,15.834,0,0,1,3.281,2.207c.454.436-1.405,2.939-1.712,3.3a10.312,10.312,0,0,1-5.479,3.118,4.486,4.486,0,0,1-1.768.148c-.8-.132-1.158-.648-1.667-1.2-.115-.124-.911-1.069-1.014-.57a4.8,4.8,0,0,0,1.142,3.766,5.425,5.425,0,0,0,2.6,2.223,6.169,6.169,0,0,0,3.614-.3c3.1-1.067,6.583-3.658,7.607-6.886.9-2.828-1.081-5.249-3.163-6.937a41.584,41.584,0,0,0-5.339-3.461l-.15-.09c2.5-2.8,6.354-4.31,10.08-5.769m53.735-.885c-1.012.41-1.891,1-2.851,1.5a9.839,9.839,0,0,0-2.079,1.721,34.14,34.14,0,0,0-3.762,4.249,33.468,33.468,0,0,0-5.146,10.029,30.921,30.921,0,0,0-1.245,6.019.811.811,0,0,1-.279.646c-.552.4-1.653-.108-2.148-.41-1.018-.62-2.19-1.658-1.962-2.963A235.911,235.911,0,0,1,127.6,25.375a2.084,2.084,0,0,1,.62-1.157c.586-.443,1.426-.165,2.092.147a3.788,3.788,0,0,1,2.107,1.782,3.245,3.245,0,0,1-.193,2.332,10.628,10.628,0,0,0-.8,2.252,18.6,18.6,0,0,1,4.952-4.319,7.155,7.155,0,0,1,6.368-.433c.535.261,1.09.775.928,1.344-.25.877-1.676.807-2.366.7m19.357,10.608c1.6-2.868,3.247-5.833,6.563-7.437a8.159,8.159,0,0,1-2.2,6.013,6.247,6.247,0,0,1-4.757,2.127q.2-.35.392-.7M173.1,40.047c-.58-.659-1.388.279-1.687.694a17.865,17.865,0,0,1-1.787,2.116,18.5,18.5,0,0,1-4.439,3.31,18.056,18.056,0,0,1-5.122,1.819,2.24,2.24,0,0,1-1.821-.21,1.929,1.929,0,0,1-.549-1.61,10.953,10.953,0,0,1,1.647-4.647,5.309,5.309,0,0,0,5.573.587,10.236,10.236,0,0,0,4.236-3.991,10.558,10.558,0,0,0,1.8-4.635,5.516,5.516,0,0,0-1.575-4.58,5.86,5.86,0,0,0-6.33-.585,12.948,12.948,0,0,0-4.825,4.57,28.756,28.756,0,0,0-3.838,7.608,6.38,6.38,0,0,1-.5,1.277,5.688,5.688,0,0,1-.609.812,30.006,30.006,0,0,1-4.712,4.776A12.1,12.1,0,0,1,145.628,49a9.4,9.4,0,0,1-1.65.465,3.789,3.789,0,0,1-1.662.087c-.967-.317-.783-1.995-.678-2.76.853-6.26,4.31-11.936,8.641-16.568a1.7,1.7,0,0,1,.077,1.752,14.255,14.255,0,0,0-.8,1.667,1.391,1.391,0,0,0,.512,1.629,1.458,1.458,0,0,0,.895.092,3.945,3.945,0,0,0,3-3.433,5.479,5.479,0,0,0-4.107-5.882,3.535,3.535,0,0,0-2.286.171,4.862,4.862,0,0,0-1.46,1.244,36,36,0,0,0-7.18,12.116,14.685,14.685,0,0,0-.839,7.752,7.246,7.246,0,0,0,4.975,5.63,7.711,7.711,0,0,0,6.563-1.876,22.509,22.509,0,0,0,4.348-5.515,8.677,8.677,0,0,0,1.93,4.479,6.44,6.44,0,0,0,4.282,2.263,8.979,8.979,0,0,0,6.024-2.306,21.065,21.065,0,0,0,5.552-6.637c.326-.613.6-1.046.95-1.648.211-.365.747-1.263.381-1.677" transform="translate(-7.968 -14.512)" fill="#fff"/>
  </g>
</svg>
