<svg xmlns="http://www.w3.org/2000/svg" width="327.33" height="272.766" viewBox="0 0 327.33 272.766">
  <g id="trolley" transform="translate(0 -4)">
    <path id="Path_22" data-name="Path 22" d="M260.368,208.574H137.706c-17.689,0-33.373-11.606-38.16-28.231L58.085,39.855a12.274,12.274,0,0,0-11.961-8.578H13.638A13.638,13.638,0,1,1,13.638,4H46.125C63.814,4,79.484,15.606,84.271,32.231l7.76,26.322h208.6A26.89,26.89,0,0,1,322.218,69.4a25.768,25.768,0,0,1,3.928,23.131l-28.136,89.3A39.582,39.582,0,0,1,260.368,208.574ZM300.642,85.83h0Z" transform="translate(0 0)" fill="#eb5c5f"/>
    <path id="Path_23" data-name="Path 23" d="M36.277,74.553A27.277,27.277,0,1,1,63.553,47.277,27.3,27.3,0,0,1,36.277,74.553Zm0-27.29v.014Z" transform="translate(113.745 202.212)" fill="#eb5c5f"/>
    <path id="Path_24" data-name="Path 24" d="M43.277,74.553A27.277,27.277,0,1,1,70.553,47.277,27.3,27.3,0,0,1,43.277,74.553Zm0-27.29v.014Z" transform="translate(202.213 202.212)" fill="#eb5c5f"/>
  </g>
</svg>
