<svg xmlns="http://www.w3.org/2000/svg" width="272.193" height="272.766" viewBox="0 0 272.193 272.766">
  <g id="phone-call_1_" data-name="phone-call (1)" transform="translate(-0.539)">
    <g id="Group_73" data-name="Group 73" transform="translate(0.539 0)">
      <path id="Path_21" data-name="Path 21" d="M265.594,200.182l-38.065-38.065c-13.595-13.595-36.706-8.156-42.144,9.516-4.078,12.236-17.673,19.033-29.908,16.314-27.189-6.8-63.9-42.144-70.693-70.693-4.078-12.236,4.078-25.83,16.314-29.908,17.673-5.438,23.111-28.549,9.516-42.144L72.549,7.137c-10.876-9.516-27.189-9.516-36.706,0l-25.83,25.83c-25.83,27.189,2.719,99.241,66.614,163.137s135.947,93.8,163.137,66.614l25.83-25.83C275.111,226.012,275.111,209.7,265.594,200.182Z" transform="translate(-0.539 0)" fill="#eb5c5f"/>
    </g>
  </g>
</svg>
