<svg xmlns="http://www.w3.org/2000/svg" width="312" height="273" viewBox="0 0 312 273">
  <g id="store" transform="translate(0 -32)">
    <g id="Group_74" data-name="Group 74" transform="translate(0 32)">
      <g id="Group_73" data-name="Group 73">
        <path id="Path_21" data-name="Path 21" d="M311.707,117.391,294.06,46.761A19.485,19.485,0,0,0,275.145,32H36.875A19.524,19.524,0,0,0,17.94,46.761L.292,117.391A9.538,9.538,0,0,0,0,119.75c0,26.871,20.768,48.75,46.313,48.75a45.5,45.5,0,0,0,36.563-18.857,44.875,44.875,0,0,0,73.125,0,44.875,44.875,0,0,0,73.125,0A45.476,45.476,0,0,0,265.688,168.5c25.545,0,46.313-21.879,46.313-48.75A9.538,9.538,0,0,0,311.707,117.391Z" transform="translate(0 -32)" fill="#eb5c5f"/>
      </g>
    </g>
    <g id="Group_76" data-name="Group 76" transform="translate(19.5 176.534)">
      <g id="Group_75" data-name="Group 75">
        <path id="Path_22" data-name="Path 22" d="M278.188,280.65a63.8,63.8,0,0,1-36.562-11.466c-21.333,14.84-51.792,14.84-73.125,0-21.333,14.84-51.792,14.84-73.125,0A63.306,63.306,0,0,1,32,274.586V378.15a19.507,19.507,0,0,0,19.5,19.5h78v-78h78v78h78a19.507,19.507,0,0,0,19.5-19.5V274.586A63.266,63.266,0,0,1,278.188,280.65Z" transform="translate(-32 -269.184)" fill="#eb5c5f"/>
      </g>
    </g>
  </g>
</svg>
