<svg width="96" height="96" viewBox="0 0 96 96" fill="none" xmlns="http://www.w3.org/2000/svg">
<circle cx="48" cy="48" r="48" fill="#EEF4FF"/>
<path d="M55.5959 48.7526C52.4984 45.4255 49.5538 41.9838 47.0681 38.1596C45.3089 35.4062 43.741 32.3087 41.8672 30.3966C40.1846 28.6375 39.1138 26.7636 38.5784 24.8516C34.8308 25.9223 32.2303 26.8401 28.8651 30.3584C5.42297 54.527 39.3815 91.8508 65.4623 67.2997C67.3743 65.5024 66.686 63.3226 67.8332 61.3723C64.2003 57.1657 59.4201 52.8444 55.5959 48.7526Z" fill="#DE814B"/>
<path d="M65.4636 67.2993C41.2949 86.9172 7.64234 55.7503 28.8664 30.3197C29.2106 29.9373 29.593 29.5166 29.9754 29.1342C34.8321 24.3157 40.2242 22.0595 45.5015 21.7153C46.0369 21.6771 46.4576 22.0977 46.4958 22.5949C46.5723 25.7307 48.5991 27.834 51.5819 28.2546C52.0408 28.3311 52.3085 28.7518 52.1938 29.2107C51.8879 30.2049 51.7731 31.2757 51.7731 32.3847C51.8879 38.0062 56.5533 42.6335 62.1749 42.6717C63.3221 42.6717 64.4311 42.5187 65.5019 42.1746C65.9225 42.0216 66.3814 42.2893 66.4579 42.7482C67.1463 46.4959 70.5498 45.8075 72.1559 45.2721C72.6148 45.1192 73.112 45.3869 73.2267 45.8458C76.3625 57.28 65.4636 67.2993 65.4636 67.2993Z" fill="#F6B059"/>
<path d="M49.0564 43.1302C49.0564 45.9601 46.7619 47.8722 43.932 47.8722C41.1021 47.8722 38.8076 45.9601 38.8076 43.1302C38.8076 40.3004 41.1021 38.0059 43.932 38.0059C46.7619 38.0059 49.0564 40.2621 49.0564 43.1302Z" fill="#6D420D"/>
<path d="M65.156 55.483C65.156 57.6628 63.3969 59.4219 61.2171 59.4219C59.0373 59.4219 57.5459 58.1217 57.5459 55.9419C57.5459 53.7621 59.0373 51.5059 61.2171 51.5059C63.3969 51.5059 65.156 53.3032 65.156 55.483Z" fill="#6D420D"/>
<path d="M35.7111 50.6637C35.7111 52.3463 34.4874 53.3023 32.8048 53.3023C31.1221 53.3023 29.6689 52.3463 29.6689 50.6637C29.6689 48.981 31.0074 47.6426 32.69 47.6426C34.3727 47.6426 35.7111 48.981 35.7111 50.6637Z" fill="#6D420D"/>
<path d="M44.9634 60.9119C44.9634 61.6767 44.3515 62.2886 43.5867 62.2886C42.8218 62.2886 42.21 61.6767 42.21 60.9119C42.21 60.147 42.8218 59.5352 43.5867 59.5352C44.3515 59.5352 44.9634 60.147 44.9634 60.9119Z" fill="#6D420D"/>
<path d="M35.6332 34.4871C36.478 34.4871 37.1628 33.8022 37.1628 32.9574C37.1628 32.1126 36.478 31.4277 35.6332 31.4277C34.7884 31.4277 34.1035 32.1126 34.1035 32.9574C34.1035 33.8022 34.7884 34.4871 35.6332 34.4871Z" fill="#6D420D"/>
<path d="M63.2814 23.7795C63.4344 25.6151 61.8282 27.1065 59.6867 27.1065C57.5452 27.1065 55.9008 25.4621 56.0155 23.4353C56.1302 21.4085 57.7364 19.9171 59.6102 20.1083C61.4841 20.2995 63.1284 21.9057 63.2814 23.7795Z" fill="#F6B059"/>
<path d="M60.5288 26.3788C61.3702 26.3788 62.135 26.1494 62.7469 25.7287C62.0967 26.57 61.026 27.1054 59.7258 27.1054C57.5842 27.1054 55.9399 25.461 56.0546 23.4725C56.1311 22.2487 56.7429 21.2162 57.6225 20.6426C57.2018 21.2162 56.8959 21.9428 56.8577 22.7459C56.7812 24.6962 58.4256 26.3406 60.5288 26.3788Z" fill="#DE814B"/>
<path d="M63.0902 34.1809C63.0137 35.4046 61.9812 36.4372 60.7957 36.5519C59.6102 36.6284 58.6542 35.6341 58.6924 34.3339C58.6924 33.0337 59.7249 31.9629 60.9869 31.9629C62.2489 31.9629 63.1667 32.9572 63.0902 34.1809Z" fill="#F6B059"/>
<path d="M61.2529 36.0166C61.7118 35.9783 62.1707 35.7871 62.5531 35.5194C62.1324 36.093 61.4823 36.4755 60.7557 36.5519C59.5702 36.6284 58.6524 35.6341 58.6524 34.3339C58.6524 33.5691 59.0349 32.8425 59.6085 32.4218C59.3408 32.8043 59.1496 33.3014 59.1496 33.7985C59.1113 35.0988 60.0674 36.093 61.2529 36.0166Z" fill="#DE814B"/>
<path d="M78.7302 35.1375C78.6155 36.5907 77.43 37.8144 76.0151 37.8909C74.6384 37.9674 73.5294 36.8202 73.5294 35.2905C73.5676 33.7608 74.7531 32.5371 76.2445 32.5371C77.736 32.5371 78.845 33.7226 78.7302 35.1375Z" fill="#F6B059"/>
<path d="M76.5887 37.3182C77.1623 37.28 77.6977 37.0505 78.1184 36.7063C77.6212 37.3947 76.8564 37.8536 76.0151 37.8918C74.6384 37.9683 73.5294 36.8211 73.5294 35.2914C73.5294 34.3736 73.9883 33.5705 74.6384 33.0352C74.2942 33.4941 74.103 34.0677 74.103 34.6795C74.103 36.2475 75.212 37.3947 76.5887 37.3182Z" fill="#DE814B"/>
</svg>
